<svg xmlns="http://www.w3.org/2000/svg">
    <symbol id="kutchipatchi" viewBox="0 0 1000 1000">
        <title>kutchipatchi</title>
        <path class="cls-1"
            d="M653.26,648.9h-.84c-25.93-.09-94.8-.34-127-35.81-16.04-17.67-21.38-41.81-22.06-64.86l-.61.27c-3.73,1.63-16.77,6.46-28.41-.12-6-3.4-13.46-11.04-14.92-28.09-2-23.49,14.9-42.27,34.47-64.03,8.02-8.91,16.72-17.31,25.87-24.97-9.26-31.32-12.91-62.86-10.84-93.75,1.34-19.95,5.02-37.87,10.34-50.43,12.62-29.73,33.19-46.93,41.45-52.94,20-14.56,37.68-17.96,69.78-24.12,27.45-5.27,56.1-6.8,85.16-4.55,34.93,2.71,52.47,4.07,73.22,16.13,27.95,16.22,41.19,40.04,48.32,52.83,15.08,27.1,18.01,50.92,20.6,71.93,3.12,25.35,2.44,51.2-1.99,76.88,5.56,4.64,10.89,9.67,15.88,14.95,7.84,8.32,22.44,23.82,30.98,47.1,5.39,14.7,10.04,27.38,3.05,37.47-9.34,13.45-31.72,10.56-34.24,10.19l-.51-.08c2.24,27.97-2.73,50.3-14.83,66.5-12.47,16.7-33.51,27.75-35.87,28.96-15.84,8.1-30.52,10.12-57.17,13.79-5.56.77-18.57,2.55-54.25,4.52-17.34.96-40.93,2.25-55.6,2.25h0ZM513.78,475.57c.18,0,.36.01.56.03l1.22.15.8,1.05c1.05,1.44.79,2.71-.87,10.92-4.78,23.74-17.49,86.81,14.09,121.58,30.53,33.64,97.6,33.88,122.86,33.97,14.41.06,38.5-1.27,56.07-2.24,35.49-1.96,48.34-3.73,53.83-4.48,28-3.86,40.99-5.87,55.37-13.22,2.24-1.15,22.21-11.63,33.91-27.32,19.86-26.61,15.93-67.66,6-104.04-2.33-7.75-4.1-13.56-5.45-17.91-.96-2.86-1.92-5.65-2.91-8.38-1.81-5.03-1.92-5.33-1.28-6.57l.56-1.09,1.19-.35c2.72-.77,3.57,1.69,4.55,4.52.66,1.91,1.61,4.86,2.82,8.78,2.08,6.03,4.66,14,7.05,23.2,2.78,9.31,6.09,20.46,9.9,33.42,5.26.5,20.7,1.09,27.02-8.02,5.06-7.3,1.89-17.04-3.7-32.31-8.14-22.22-21.7-36.59-29.79-45.19-5.2-5.51-10.78-10.74-16.62-15.51l-1.27-1.05.29-1.62c4.59-25.66,5.35-51.5,2.23-76.81-2.52-20.51-5.38-43.74-19.92-69.88-6.85-12.32-19.62-35.26-46.22-50.7-19.65-11.41-36.76-12.74-70.84-15.39-28.56-2.22-56.71-.72-83.66,4.46-31.3,6.01-48.54,9.33-67.53,23.15-7.88,5.74-27.52,22.15-39.58,50.6-2.95,6.94-8.16,22.51-9.92,48.61-2.07,30.8,1.68,62.28,11.14,93.54l.54,1.79-1.44,1.19c-9.47,7.81-18.45,16.42-26.71,25.59-18.71,20.78-34.84,38.72-33.06,59.77,1,11.74,5.06,19.7,12.09,23.68,8.25,4.68,17.71,2.06,21.96.45,3.67-23.84,6.58-41.44,8.64-52.35,2.44-12.9,3.29-16.02,6.06-16.02h.01Z" />
        <path class="cls-1"
            d="M601.66,689.58c-2.27,0-4.57-.1-6.88-.33-17.85-1.68-32.18-9.5-39.31-21.46-7.64-12.82-5.59-27.88-2.53-38.25l5.4,1.6c-2.75,9.3-4.63,22.7,1.97,33.78,6.11,10.25,19.2,17.26,35,18.74,17.9,1.69,35.51-4.07,44.88-14.66,5.27-5.94,8.44-13.75,9.44-23.2l5.59.6c-1.13,10.62-4.77,19.48-10.82,26.32-9.44,10.67-25.4,16.86-42.75,16.86h-.01Z" />
        <path class="cls-1"
            d="M777.85,687.21c-5.92,0-11.75-.87-17.04-2.41-30.21-8.8-38.73-40.06-39.08-41.38l5.45-1.43c.32,1.2,8.02,29.49,35.2,37.4,11.9,3.47,35.55,4.73,48.76-12.52,12.79-16.7,6.02-37.78,5.2-40.13l5.31-1.85c.91,2.64,8.53,26.36-6.06,45.4-9.25,12.09-23.77,16.9-37.76,16.9h.01Z" />
        <path class="cls-1"
            d="M572.63,318.05c-.81,0-1.62-.03-2.44-.11-7.42-.68-13.97-4.38-17.99-10.14-7.2-10.34-4.86-25.5,5.11-33.11,7.68-5.85,18.72-6.38,26.84-1.27,6.19,3.89,10.41,10.97,11.28,18.94.81,7.44-1.47,14.44-6.3,19.2h0c-4.23,4.19-10.14,6.48-16.5,6.48h0ZM571.74,275.58c-3.94,0-7.89,1.22-11.02,3.59-7.64,5.83-9.43,17.47-3.89,25.41,3.06,4.4,8.11,7.23,13.88,7.74,5.62.51,10.89-1.23,14.47-4.76,3.59-3.55,5.29-8.87,4.66-14.59-.68-6.18-4.01-11.85-8.68-14.79-2.78-1.74-6.09-2.61-9.41-2.61h-.01Z" />
        <path class="cls-1"
            d="M788.68,315.01c-.81,0-1.62-.03-2.44-.11-7.42-.68-13.97-4.38-17.99-10.14-7.2-10.34-4.86-25.5,5.11-33.11,7.68-5.85,18.72-6.38,26.84-1.27,6.19,3.89,10.41,10.97,11.28,18.94.81,7.44-1.47,14.44-6.3,19.2l-1.98-2,1.98,2c-4.23,4.18-10.14,6.48-16.5,6.48h0ZM787.79,272.53c-3.94,0-7.89,1.22-11.02,3.59-7.64,5.83-9.43,17.47-3.89,25.41,3.06,4.4,8.11,7.23,13.88,7.74,5.62.51,10.89-1.23,14.47-4.76h0c3.59-3.55,5.29-8.87,4.66-14.59-.68-6.18-4.01-11.85-8.68-14.79-2.78-1.74-6.09-2.61-9.41-2.61h-.01Z" />
        <path class="cls-1"
            d="M717.32,373.22c-2.67,0-5.55-.02-8.64-.06-20.66-.23-36.08-.82-42.67-1.08l-1.29-.05c-13.71-.52-24.09-.6-32.41-.65-20.4-.15-27.28-.2-32.72-7.18-8.2-10.53-5.26-28.07,2.19-38.28,7.38-10.12,18.56-12.35,35.49-15.73,10.76-2.15,19.52-2.71,56.86-2.31,29.21.32,35.65.73,43.97,4.78,16.13,7.86,24.85,18.04,25.21,29.45.41,12.46-9.32,21.26-12.3,23.67-7.97,6.4-16.81,7.43-33.66,7.43h-.02ZM675.3,313.39c-22.82,0-29.1.75-36.95,2.32-17.53,3.5-26.21,5.54-32.04,13.53-6.27,8.6-8.7,23.31-2.31,31.5h0c3.62,4.65,8.45,4.86,28.33,5.01,8.37.07,18.8.14,32.59.66l1.31.05c6.56.25,21.92.84,42.52,1.07,22.73.25,31.33-.19,38.73-6.13,1.76-1.42,10.53-8.99,10.21-19.1-.29-9.06-8.13-17.78-22.06-24.57-6.94-3.39-12-3.89-41.56-4.22-7.28-.08-13.46-.12-18.74-.12h-.02Z" />
        <path class="cls-1"
            d="M675.37,428.12c-8.65,0-17.24-.27-27.62-.95-41.02-2.69-46.64-6.69-50.54-12.49-7.21-10.74-3.44-25.41-2.61-28.25,3.22-11.02,10.49-17.64,14.54-20.61l3.33,4.54c-3.48,2.55-9.71,8.23-12.47,17.66-.43,1.47-4.05,14.7,1.89,23.52,2.07,3.08,4.92,7.32,46.25,10.02,21.92,1.44,35.08,1.04,62.73,0,22.48-.84,29.41-1.83,35.37-7.16,1.27-1.14,12.38-11.56,9.26-25.42-2.81-12.53-14.94-17.71-16.31-18.27l2.09-5.22c1.65.66,16.26,6.91,19.71,22.25,3.83,17.01-9.48,29.49-11,30.85-7.63,6.83-16.24,7.74-38.91,8.59-14.29.54-25.04.95-35.7.95h-.02Z" />
    </symbol>

    <symbol id="mametchi" viewBox="0 0 1000 1000">
        <title>mametchi</title>
        <path class="cls-1"
            d="M520,314.8c-1.13-14.13-1.73-28.6-1.79-42.99-.07-17.36-.11-26.92,1.84-35.31,5.04-21.61,15.56-37.96,31.25-48.62,10.85-7.37,29.37-15.26,56.02-11.06,8.18,1.29,29.91,4.72,44.2,22.2,10.04,12.28,11.62,25.85,14.76,52.9,1.43,12.34,2.06,24.83,1.85,37.17l52.92-2.56.22,4.46-57.71,2.79.06-2.4c.33-12.91-.27-26.01-1.77-38.94-3.04-26.18-4.57-39.32-13.78-50.59-13.21-16.17-33.72-19.4-41.44-20.62-20.23-3.19-38,.29-52.82,10.35-14.74,10.01-24.63,25.46-29.41,45.94-1.76,7.56-1.8,15.97-1.73,34.28.06,14.28.66,28.63,1.78,42.65l-4.45.35Z" />
        <path class="cls-1"
            d="M601.39,561.27c-16.12-1.68-32.18-5.01-47.72-9.9-21.09-6.64-37.74-11.88-53.47-26.36-16.9-15.55-23.44-33.16-27.34-43.69-8.94-24.08-10.77-50.29-5.45-77.92,8.9-46.21,37.25-76.52,53.36-90.47l2.92,3.37c-15.67,13.57-43.26,43.05-51.9,87.95-5.16,26.81-3.4,52.22,5.25,75.52,3.77,10.15,10.07,27.13,26.18,41.96,15,13.8,31.24,18.91,51.79,25.38,15.25,4.8,31.02,8.07,46.84,9.72l-.46,4.44Z" />
        <path class="cls-1"
            d="M854.52,299.64l-4.44-.36c1.01-12.3,1.01-24.79,0-37.1-1.98-24.22-3.18-38.83-13.01-53.35-8.54-12.61-21.08-21.93-37.26-27.7-10.21-3.64-29.22-10.41-48.22-.99-17.09,8.47-23.95,25.07-25.65,29.96-2.57,7.42-2.57,13-2.55,24.11v.14c.02,14.4.02,30.4,0,54.42h-4.46c.02-24.02.02-40.02,0-54.42v-.13c-.01-11.25-.02-17.45,2.8-25.58,1.84-5.29,9.27-23.27,27.88-32.49,20.7-10.25,40.86-3.07,51.7.79,17.1,6.09,30.38,15.98,39.46,29.4,10.49,15.49,11.72,30.54,13.76,55.48,1.03,12.56,1.03,25.29,0,37.84Z" />
        <path class="cls-1"
            d="M779.54,563.97c-.44,0-.87,0-1.3,0l.03-4.46c18.01.13,63.53-2.92,96.58-34.18,4.1-3.88,15-14.19,23.62-31.49,3.84-7.71,12.65-28.61,11.37-55.99-.5-10.77-2.78-24.27-24.77-70.51-10.65-22.4-22.33-44.87-34.72-66.77l3.88-2.2c12.44,21.99,24.17,44.55,34.87,67.05,22.34,46.99,24.67,60.98,25.19,72.22,1.33,28.43-7.83,50.17-11.83,58.19-8.98,18.01-20.29,28.71-24.55,32.74-32.39,30.63-75.01,35.41-98.38,35.41Z" />
        <path class="cls-1"
            d="M746.91,691.89c-3.29,0-6.76-1.17-10.06-3.42-8.54-5.84-9.27-17-9.14-21.96l-80.74-1.7c-.65,1.98-1.41,3.93-2.29,5.82-2.94,6.3-6.6,14.15-14.61,17.2-.97.37-9.68,3.49-15.57-1.24-4.62-3.71-4.74-9.84-4.4-18.78.85-22.25,4.34-43.12,4.49-44l.46-2.71c.93-5.44,1.87-11.02,2.11-14.27-.08.1-.17.21-.25.31-1.9,2.38-4.78,5.99-9.4,9.83-5.14,4.28-9.58,7.97-15.82,7.65-5.58-.29-10.98-3.64-13.45-8.32-3.39-6.43-.44-13.1,4.46-24.15l.83-1.87c4.54-10.29,9.03-21.06,13.35-32.03l4.15,1.63c-4.34,11.02-8.86,21.86-13.42,32.2l-.83,1.88c-4.49,10.15-6.97,15.75-4.59,20.27,1.74,3.29,5.74,5.74,9.74,5.95,4.29.24,7.63-2.37,12.73-6.62,4.27-3.56,6.98-6.95,8.77-9.19,2.1-2.63,3.62-4.52,5.91-3.68,3.49,1.28,2.64,6.29.11,21.17l-.46,2.7c-.15.87-3.59,21.46-4.43,43.43-.33,8.68-.02,12.92,2.74,15.12,4.02,3.22,11.12.57,11.19.55,6.32-2.41,9.42-9.05,12.15-14.92,1.02-2.19,1.88-4.48,2.55-6.81l.48-1.65,88.93,1.87-.3,2.45c-.02.14-1.66,14.22,7.07,20.19,3.41,2.33,6.79,3.16,9.77,2.36,3.73-.99,5.79-4.22,7.61-7.07,3.21-5.03,3.9-9.98,4.13-11.6,1.43-10.18,2.15-15.29,1.76-28.17-.33-11.12.58-22.68,2.71-34.37l4.39.8c-2.07,11.38-2.96,22.63-2.64,33.43.4,13.26-.34,18.49-1.81,28.92-.26,1.86-1.06,7.53-4.79,13.38-2.03,3.19-4.82,7.55-10.23,8.99-1.09.29-2.22.43-3.37.43Z" />
        <path class="cls-1"
            d="M790.27,627.92c-7.9,0-17.81-7.99-24.67-20.51l3.91-2.14c7.33,13.37,17.83,19.97,23.04,17.75,3.06-1.3,5.05-6.2,5.82-9.99,1.32-6.48-1-11.99-2.55-15.63-4.83-11.43-10.21-23.09-16-34.66l3.99-2c5.83,11.66,11.25,23.41,16.12,34.92,1.65,3.9,4.41,10.43,2.81,18.27-.5,2.47-2.6,10.72-8.45,13.2-1.26.53-2.61.79-4.03.79Z" />
        <path class="cls-1"
            d="M707.39,567.68c-18.85,0-42.8-.65-70.27-2.83-11.89-.94-23.93-2.15-35.78-3.58l.53-4.43c11.79,1.43,23.76,2.62,35.59,3.56,53.65,4.25,93.77,2.66,108.53,1.78,10.73-.64,21.5-1.54,32.01-2.67l.48,4.43c-10.58,1.14-21.42,2.04-32.22,2.69-7.29.43-20.72,1.04-38.88,1.04Z" />
        <path class="cls-1"
            d="M674.05,525.6c-6.28,0-13.16-1.3-19.91-4.7-6.67-3.36-12.52-8.55-16.9-15.01l3.69-2.5c3.96,5.84,9.22,10.52,15.21,13.53,12.86,6.47,26.2,4.52,33.71.88,4.79-2.32,8.28-5.78,8.32-5.81,2.4-2.4,4.35-5.19,5.8-8.29l4.04,1.89c-1.67,3.57-3.92,6.79-6.69,9.55-.16.16-4.06,4.03-9.53,6.68-4.45,2.16-10.72,3.79-17.75,3.79Z" />
        <path class="cls-1"
            d="M583.59,481.99c-7.81,0-14.18-1.19-18.06-1.92-11.18-2.1-29.9-5.61-43.26-22.2-6.15-7.64-15.9-23.49-12.05-43.74,3.72-19.57,18.15-30.63,24.19-34.47,12.37-7.88,23.76-8.09,39.52-8.38h0c19.86-.37,40.4-.74,55.99,13.99,8.21,7.76,13.69,18.37,15.83,30.68,2.18,12.53.61,24.11-4.67,34.41-8.04,15.68-21.88,22.27-27.79,25.08-10.73,5.11-21.09,6.56-29.7,6.56ZM573.97,373.5l.04,2.23c-15.03.27-25.89.47-37.2,7.68-5.55,3.53-18.81,13.68-22.2,31.54-3.51,18.49,5.47,33.07,11.14,40.11,12.33,15.32,29.34,18.51,40.6,20.62,7.74,1.45,25.85,4.85,45.02-4.28,5.97-2.84,18.38-8.76,25.74-23.09,4.83-9.41,6.26-20.05,4.25-31.61-1.98-11.35-6.99-21.1-14.5-28.2-14.26-13.48-33-13.14-52.85-12.77l-.04-2.23Z" />
        <path class="cls-1"
            d="M772.41,485.48c-7.9,0-14.22-1.18-17.75-1.84-11.06-2.07-29.58-5.53-42.94-21.93-6.54-8.02-16.79-24.38-12.03-43.87,4.97-20.37,23.35-29.83,29.38-32.94,17.23-8.87,33.61-7.05,46.76-5.59h0c9.52,1.06,21.37,2.38,33.93,10.13,6.73,4.15,20.72,12.79,25.38,30.13,3,11.15,1.39,23.12-4.64,34.62-8.11,15.46-21.61,21.77-28.1,24.81-10.82,5.06-21.35,6.48-29.99,6.48ZM758.85,382.56c-8.73,0-18.16,1.36-27.75,6.3-6.18,3.18-22.6,11.64-27.09,30.03-4.3,17.61,5.15,32.61,11.16,39.99,12.33,15.13,29.84,18.41,40.3,20.36,7.01,1.31,25.62,4.79,45.04-4.29,6.05-2.83,18.63-8.71,26.04-22.84,5.5-10.49,6.98-21.34,4.28-31.39-4.2-15.63-16.7-23.35-23.41-27.49-11.71-7.23-22.53-8.43-32.08-9.5l.25-2.22-.25,2.22c-5.05-.56-10.6-1.18-16.48-1.18Z" />
        <path class="cls-1"
            d="M590.07,470.68c-3.11,0-5.22-.73-6.3-2.18-1.55-2.09-.37-4.22,1.41-7.45,1.5-2.71,3.76-6.8,6.33-13.42,1.87-4.81,3.99-10.26,5.23-17.41.88-5.08,2.71-15.64-.83-27.53-1.69-5.65-3.85-9.15-5.42-11.71-1.63-2.65-3.04-4.93-1.37-7.2h0c1.19-1.61,3.53-2.35,6.96-2.21,9.02.37,25.59,7.16,34.2,21.1,11.15,18.03,3.18,37.77,2.84,38.6-7.78,18.79-28.08,27.76-39.83,29.2-1.17.14-2.25.22-3.22.22ZM587.66,465.94c1.17.39,4.5.57,9.97-.87,11.29-2.98,25.46-11.25,31.37-25.52.31-.74,7.45-18.44-2.51-34.55-6.8-11-19.49-17.44-28.4-18.77-2.93-.44-4.5-.17-5.13.08.25.56.84,1.52,1.33,2.32,1.61,2.62,4.05,6.57,5.9,12.78,3.85,12.89,1.82,24.58.95,29.57-1.32,7.59-3.52,13.27-5.47,18.27-2.68,6.89-5.03,11.14-6.58,13.96-.57,1.04-1.16,2.11-1.43,2.74ZM587.28,465.76" />
        <path class="cls-1"
            d="M783.39,471.83c-2.94,0-3.97-.88-4.49-1.64-1.35-1.97.14-3.8,1.7-5.73,1.59-1.96,3.98-4.92,6.35-9.84,3.64-7.57,5.36-15.33,5.13-23.06-.32-10.77-4.44-19.08-6.9-24.05-2.09-4.21-3.94-6.92-5.29-8.9-1.74-2.56-3.12-4.57-1.72-6.71.88-1.34,2.63-2.05,5.21-2.11,8.03-.18,24.46,5.71,34.14,18.97,3.49,4.78,11.2,17.5,7.5,32.19-2.14,8.47-7.81,16.01-16.4,21.78-6.24,4.19-14.07,7.43-20.93,8.65-1.77.31-3.17.44-4.3.44ZM782.4,394.31c.3.5.76,1.17,1.17,1.78,1.34,1.97,3.37,4.94,5.6,9.42,2.63,5.3,7.02,14.16,7.37,25.9.25,8.45-1.62,16.9-5.57,25.12-2.59,5.4-5.29,8.73-6.9,10.72l-.09.11c3.24-.17,9.81-1.61,16.96-5.28,7.42-3.81,16.87-10.76,19.76-22.22,3.24-12.86-3.66-24.2-6.78-28.47-10.18-13.97-27.43-17.79-31.52-17.08ZM781.74,394.54h0Z" />
        <path class="cls-1"
            d="M681.64,362.9c-46.4,0-67.97-1.63-77.51-2.34-36.04-2.71-72.5-7.89-108.35-15.38l.91-4.37c35.66,7.45,71.93,12.6,107.78,15.3,12.46.94,45.57,3.43,128.25,1.78,48.8-.98,98.59-3.08,147.99-6.24l.29,4.45c-49.47,3.17-99.32,5.27-148.19,6.25-19.74.39-36.67.55-51.16.55Z" />
        <path class="cls-1"
            d="M541.38,432.85c-.22,0-.45-.01-.67-.04-5.84-.67-8.2-9.83-9.08-15.24-.96-5.86,0-10.61.98-13.55,1.28-3.87,3.22-9.72,8.04-10.43h0c5.42-.79,9.53,5.99,10.3,7.36,2.36,4.2,2.23,8.17,2.07,12.77-.15,4.42-.29,8.59-3.04,12.75-2.8,4.24-5.68,6.38-8.58,6.38ZM541.28,398.01h0c-2.1.31-3.63,4.93-4.45,7.42-.82,2.47-1.62,6.46-.81,11.43,1.06,6.46,3.24,11.3,5.19,11.53.47.05,2.21-.11,5.02-4.37,2.06-3.12,2.17-6.35,2.31-10.44.14-4.25.25-7.32-1.5-10.43-1.2-2.13-3.82-5.41-5.76-5.13Z" />
        <path class="cls-1"
            d="M726.14,433.71c-.22,0-.45-.01-.67-.04-5.84-.67-8.2-9.83-9.08-15.23-.96-5.87,0-10.61.98-13.55,1.28-3.87,3.22-9.72,8.04-10.43h0c5.42-.79,9.53,5.99,10.3,7.36,2.36,4.2,2.23,8.17,2.07,12.76-.15,4.42-.29,8.59-3.04,12.75-2.8,4.24-5.68,6.38-8.58,6.38ZM726.05,398.87h0c-2.1.31-3.63,4.93-4.45,7.41-.82,2.47-1.62,6.46-.81,11.43,1.06,6.46,3.24,11.3,5.19,11.53.47.05,2.21-.11,5.02-4.37,2.06-3.12,2.17-6.35,2.31-10.44.15-4.25.25-7.32-1.5-10.43-1.29-2.29-3.93-5.4-5.76-5.13Z" />
    </symbol>

    <symbol id="memetchi" viewBox="0 0 1000 1000">
        <title>memetchi</title>
        <path class="cls-1"
            d="M604.47,693.87l-4.94-.75c.99-6.55,2.73-12.81,5.17-18.6,1.03-2.45,2.05-4.48,3.03-6.46,1.79-3.6,3.48-7,5.12-12.56,1.61-5.47,1.73-8.17,1.66-9.91,0-.05-.31-6.05-3.67-11.85-6.42-11.09-42.65-19.32-58.11-22.83-1.61-.37-3.05-.69-4.29-.98-11.36-2.66-45.95-10.76-74.88-31.4-20.46-14.59-36.88-34.42-48.8-58.94-21.21-43.63-16.14-83.43-14.23-98.41,2.04-16,8.7-47.8,30.39-81.05,11.19-17.15,36.59-49.17,81-70.88,25.15-12.3,52.23-19.28,80.47-20.75l.26,4.99c-27.57,1.44-53.99,8.25-78.53,20.25-43.33,21.18-68.1,52.4-79,69.12-21.15,32.42-27.63,63.38-29.61,78.95-1.86,14.58-6.79,53.3,13.77,95.59,11.55,23.76,27.43,42.95,47.2,57.06,28.13,20.06,61.99,28,73.12,30.6,1.23.29,2.66.61,4.26.98,27.95,6.35,54.73,13.8,61.33,25.21,4,6.9,4.32,13.86,4.33,14.15.09,2.13-.05,5.36-1.86,11.52-1.76,5.98-3.63,9.74-5.44,13.38-.95,1.9-1.93,3.87-2.9,6.17-2.28,5.41-3.9,11.26-4.83,17.4Z" />
        <path class="cls-1"
            d="M715.57,686.5c-1.56,0-3.38-.07-5.65-.15-4.04-.15-9.58-.35-17.92-.35h-.06c-6.44,0-10.92.12-14.52.22-5.79.16-9.98.27-17.59-.23-11.42-.75-17.15-1.13-21.85-3.21-6.2-2.75-17.49-10.64-23.4-32.64l4.83-1.3c5.37,19.99,15.21,26.98,20.6,29.36,3.89,1.72,9.32,2.08,20.15,2.79,7.37.48,11.25.38,17.12.22,3.63-.1,8.15-.22,14.65-.22h.06c8.43,0,14.02.2,18.1.35,7.29.26,9.03.33,13.01-1.19,10.23-3.9,16.63-10.71,20.07-14.38,6.47-6.9,11.34-15,14.46-24.1l4.73,1.62c-3.35,9.77-8.58,18.48-15.54,25.9-3.45,3.67-10.63,11.32-21.93,15.62-3.44,1.31-5.71,1.66-9.32,1.66Z" />
        <path class="cls-1"
            d="M774.68,679.43c-1.61-4.03-3.57-7.94-5.82-11.63-1.29-2.11-2.34-3.62-3.27-4.95-1.35-1.92-2.51-3.58-3.83-6.24-1.2-2.41-4-8.05-4.26-14.01-.53-12.44,10.24-21.93,14.85-25.98,6.7-5.9,14.65-10.42,23.65-13.43l.21-.07c25.15-8.43,44.4-27.73,63.02-46.39,7.69-7.71,25.69-25.75,39.51-55.3,19.37-41.43,18.19-79.33,16.78-93.7-1.79-18.26-7.56-45.95-24.85-74.16-26.66-43.49-64.66-62.07-78.97-69.06-24.54-12-50.97-18.81-78.53-20.25l.26-4.99c28.24,1.47,55.32,8.46,80.47,20.75,14.66,7.17,53.62,26.21,81.03,70.94,17.79,29.02,23.72,57.5,25.56,76.29,1.45,14.78,2.67,53.75-17.22,96.3-14.19,30.35-32.62,48.82-40.5,56.71-19.04,19.08-38.71,38.79-64.97,47.6l-.21.07c-8.36,2.8-15.74,6.98-21.93,12.44-4.41,3.88-13.58,11.97-13.15,22.02.21,4.89,2.68,9.87,3.74,11.99,1.16,2.32,2.17,3.77,3.45,5.59.97,1.39,2.08,2.97,3.45,5.22,2.39,3.93,4.47,8.09,6.18,12.37l-4.64,1.86Z" />
        <rect class="cls-1" x="664" y="683.46" width="5" height="50.09"
            transform="translate(-41.24 41.19) rotate(-3.43)" />
        <rect class="cls-1" x="715.5" y="683.48" width="5" height="45.04"
            transform="translate(-30.64 32.58) rotate(-2.54)" />
        <path class="cls-1"
            d="M640.16,262.15c-16.42,0-37.49-3.72-55.75-18.72-33.87-27.83-36.05-77.38-20.7-111.95,18.26-41.11,64.38-66.12,109.65-59.46,40.52,5.96,75.5,37.16,85.06,75.87,5.37,21.75,2.48,46.83-8.14,70.62-4.29,9.62-7.69,17.21-15.55,24.78-12.27,11.81-30.37,18.16-50.92,17.9-6.17-.08-12.38-.75-18.43-1.96-4.31,1.05-13.61,2.92-25.23,2.92ZM658.66,75.95c-38.31,0-74.89,22.68-90.38,57.56-14.59,32.84-12.64,79.81,19.3,106.05,22.87,18.79,50.57,18.76,66.37,16.69-8.11-2.62-15.72-6.23-22.35-10.68-4.32-2.9-14.43-9.68-21.79-22.86-9.18-16.43-9.02-30.66-7.27-39.69,3.34-17.26,15.52-32.08,34.31-41.75,8.17-4.2,27.31-14.04,46.22-5.03,17.41,8.29,22.62,27.34,24.34,33.6,2.01,7.35,5.38,19.65-1.21,31.85-8.4,15.55-21.34,17.18-25.11,17.31-10.32.34-20.46-5.4-25.28-14.31-4.67-8.63-6.31-24.05,2.96-29.36,6.15-3.53,15.58-1.34,22.92,5.32l-3.36,3.71c-5.67-5.14-12.85-7.11-17.08-4.68-6.2,3.55-4.76,15.78-1.04,22.64,3.94,7.28,12.27,11.98,20.72,11.69,12.25-.42,19.08-11.35,20.89-14.69,5.64-10.44,2.72-21.1.79-28.15-1.73-6.32-6.33-23.1-21.67-30.41-16.68-7.95-34.27,1.1-41.78,4.97-17.39,8.95-28.65,22.53-31.69,38.25-1.59,8.22-1.71,21.19,6.73,36.31,6.78,12.13,16.19,18.45,20.21,21.14,8.81,5.91,19.56,10.28,30.9,12.68.02,0,.05-.01.07-.02v.03c23.48,4.94,49.45,1.42,65.9-14.42,7.16-6.9,10.38-14.1,14.45-23.22,10.17-22.78,12.96-46.71,7.86-67.38-9.09-36.79-42.37-66.45-80.94-72.13-4.66-.69-9.33-1.02-13.97-1.02Z" />
        <path class="cls-1"
            d="M678.84,569.55c-5.53,0-11.73-.25-18.95-.55-29.22-1.2-46.85-1.93-64.27-13.41-7.46-4.92-14.06-11.17-19.62-18.59l4-3c5.22,6.96,11.4,12.81,18.38,17.41,15.6,10.29,30.2,11.29,61.73,12.59,23.77.98,34.79,1.16,46.79-4.75,8.46-4.16,15.91-10.32,22.13-18.29l3.94,3.08c-6.7,8.58-14.73,15.21-23.87,19.71-9.35,4.6-18.23,5.81-30.26,5.81Z" />
        <path class="cls-1"
            d="M526.43,495.62c-8.4,0-20.06-1.69-30.84-9.06-22.33-15.27-24.28-42.93-24.09-54.11.27-15.3,5.72-30.85,15.34-43.79,9.08-12.2,21.28-21.16,33.49-24.58h0c5.81-1.63,11.65-2.01,14.6-2.09,21.25-.6,33.88,6.54,40.73,12.63,16.73,14.88,16.13,37.88,15.84,48.93-.46,17.53-5.68,32.83-15.53,45.47-4.78,6.13-17.47,22.43-40.6,25.94-2.09.32-5.19.65-8.95.65ZM537.4,366.97c-.76,0-1.54.01-2.33.03-2.73.08-8.1.42-13.4,1.91h0c-21.29,5.96-44.62,31.99-45.17,63.64-.18,10.37,1.59,35.99,21.91,49.89,14.13,9.66,30.03,8.53,36.21,7.59,21.16-3.2,32.96-18.36,37.4-24.06,9.17-11.78,14.04-26.09,14.47-42.53.27-10.3.83-31.73-14.16-45.07-5.93-5.27-16.74-11.4-34.94-11.4Z" />
        <rect class="cls-1" x="487.5" y="338.41" width="5" height="44.18"
            transform="translate(-30.63 45.84) rotate(-5.19)" />
        <rect class="cls-1" x="518" y="331.49" width="5" height="35.01"
            transform="translate(-9.76 15.01) rotate(-1.64)" />
        <rect class="cls-1" x="544.37" y="349.5" width="31.26" height="5"
            transform="translate(139.25 862.37) rotate(-82.65)" />
        <rect class="cls-1" x="496.82" y="500.5" width="24.35" height="5"
            transform="translate(-133.29 818.51) rotate(-70.82)" />
        <rect class="cls-1" x="532.5" y="492.5" width="5" height="19" />
        <rect class="cls-1" x="552" y="486.95" width="5" height="21.1"
            transform="translate(-178.07 362.14) rotate(-31.43)" />
        <path class="cls-1"
            d="M528,482.03l-1.09-.04c-2.45-.09-2.5-1.9-2.59-5.52-.08-3.2-.21-8.56-.81-14.74-.75-7.7-1.53-9.57-1.82-10.28-2.39-5.75-6.72-9.29-9.09-10.89-3.47-2.34-6.69-3.26-9.04-3.93-2.45-.7-4.99-1.42-5.06-4.08-.07-2.85,2.7-3.69,5.9-4.67,2.77-.84,6.57-2,10.19-4.46,5.61-3.81,8.18-9.02,11.17-15.04,4.48-9.05,6.18-17.46,7.19-22.49.9-4.44,1.42-7.14,4.25-6.9,2.84.23,3.11,2.53,4.28,12.19.29,2.37.41,3.95.52,5.33.12,1.46.22,2.72.47,4.63.2,1.49.74,5.46,1.93,9.66,1.65,5.85,2.96,10.46,6.37,13.92,3.06,3.1,6.82,4.23,9.32,4.99,2.09.63,4.68,1.41,4.39,4.05-.3,2.71-3.05,2.9-5.96,3.09-3.14.21-7.89.53-12.38,2.85-6.84,3.54-10.13,10.26-11.9,13.88-5.07,10.36-4.8,21.04-4.72,24.55.04,1.49.06,2.31-.76,3.12l-.77.76ZM506.81,432.39c2.37.74,5.39,1.88,8.59,4.04,2.83,1.91,8.02,6.16,10.91,13.11.48,1.15,1.01,2.82,1.54,6.34.54-1.48,1.18-2.98,1.91-4.48,2.02-4.13,5.79-11.82,14.1-16.12,3.16-1.63,6.38-2.44,9.17-2.88-1.91-.95-3.94-2.26-5.8-4.15-4.32-4.37-5.85-9.8-7.63-16.08-1.28-4.54-1.86-8.76-2.07-10.34-.28-2.05-.39-3.44-.5-4.91-.1-1.23-.2-2.49-.4-4.3-1.19,4.99-3.06,11.28-6.37,17.98-3.16,6.38-6.14,12.41-12.83,16.96-3.81,2.59-7.73,3.93-10.6,4.82Z" />
        <path class="cls-1"
            d="M793.43,513.12c-8.4,0-20.06-1.69-30.84-9.06-22.33-15.27-24.28-42.93-24.09-54.11.27-15.3,5.72-30.85,15.34-43.79,9.08-12.2,21.28-21.16,33.49-24.58h0c6.49-1.82,12.59-2.02,14.59-2.09,7.12-.24,28.76-.97,40.99,13.38,4.14,4.86,5.6,10.24,8.51,20.97,1.61,5.93,4.6,16.97,4.08,30.75-.34,9.02-.97,25.82-12.47,41.86-10.29,14.36-24.72,23.6-40.66,26.02-2.09.32-5.19.65-8.95.65ZM788.67,386.41c-21.29,5.96-44.62,31.99-45.17,63.64-.18,10.37,1.59,35.99,21.91,49.89,14.13,9.66,30.03,8.53,36.21,7.59,14.59-2.21,27.85-10.73,37.34-23.98,10.62-14.83,11.21-30.64,11.53-39.14.49-13.02-2.38-23.58-3.92-29.25-2.71-10.01-4.08-15.03-7.49-19.03-10.66-12.51-30.49-11.84-37.01-11.62-1.85.06-7.5.25-13.41,1.91h0Z" />
        <rect class="cls-1" x="758.49" y="359" width="46.01" height="5"
            transform="translate(403.14 1134.98) rotate(-88.76)" />
        <path class="cls-1"
            d="M843.18,394.72l-4.37-2.44c2.97-5.32,5.97-10.66,9.01-16.02,2.67-4.7,5.34-9.38,8.01-14.01l4.33,2.49c-2.67,4.63-5.33,9.29-7.99,13.99-3.03,5.35-6.03,10.68-8.99,15.98Z" />
        <rect class="cls-1" x="763.82" y="518" width="24.35" height="5"
            transform="translate(29.47 1082.45) rotate(-70.82)" />
        <rect class="cls-1" x="799.5" y="510" width="5" height="19" />
        <rect class="cls-1" x="819" y="504.45" width="5" height="21.1"
            transform="translate(-148.02 503.93) rotate(-31.43)" />
        <path class="cls-1"
            d="M790.62,498.22l-2.47-.6-.49-1.21c-.51-1.3.31-7.31,2.83-14.46.03-.77.04-1.56.02-2.37-.05-1.88-.36-5.73-1.87-10.28-1.07-3.23-3.58-10.79-10.14-15.8-3.85-2.94-7.83-4.05-10.74-4.86-2.66-.74-5.4-1.5-5.24-4.27.15-2.62,2.77-3.2,5.31-3.76,2.39-.53,5.67-1.25,8.88-3.22,3.01-1.85,6.08-5.58,9.12-11.08,5.34-9.66,7.36-19.1,8.44-24.18.85-3.99,1.37-6.4,4.04-6.09h0c2.38.28,2.54,2.37,2.78,5.55.09,1.23.21,2.75.41,4.67.38,3.55.71,5.27,1.06,7.1.3,1.55.61,3.16.94,5.87.56,4.69.52,7.23.48,9.27-.04,2.05-.07,3.54.5,6.58.86,4.63,1.48,7.98,3.6,11.03,3.4,4.91,8.97,6.96,12.66,8.32,2.72,1,5.29,1.95,4.73,4.62-.53,2.53-3.1,2.5-5.56,2.46-2.99-.04-7.51-.11-11.67,2.21-2.8,1.56-5.41,5.03-7.12,7.67-2.53,3.92-4.36,7.96-5.67,11.6-.43,7.1-2.58,13.47-3.85,14.49l-.97.78ZM772.09,444.7c2.78.9,6.12,2.29,9.43,4.81,7.79,5.95,10.75,14.85,11.86,18.2.56,1.68.97,3.28,1.28,4.75.69-1.29,1.44-2.57,2.25-3.82,2.93-4.53,5.92-7.67,8.88-9.33,2.6-1.45,5.25-2.17,7.67-2.53-3.29-1.63-6.86-4.04-9.51-7.87-2.72-3.93-3.46-7.92-4.4-12.97-.66-3.54-.62-5.41-.58-7.58.04-1.98.08-4.23-.44-8.57-.3-2.54-.58-3.98-.88-5.52-.17-.85-.33-1.72-.5-2.77-1.4,4.99-3.53,11.03-6.95,17.2-3.47,6.26-7.13,10.61-10.88,12.92-2.53,1.56-5.05,2.47-7.22,3.07Z" />
        <rect class="cls-1" x="800.4" y="361.5" width="39.2" height="5"
            transform="translate(374.31 1142.62) rotate(-84.15)" />

    </symbol>

    <symbol id="sebiretchi" viewBox="0 0 1000 1000">
        <title>sebiretchi</title>
        <path class="cls-1"
            d="M525.7,431.98c-28.38-3.46-55.23-11.27-79.79-23.23-24.4-11.88-38.96-24.14-43.26-36.42-2.53-7.22-3.41-15.77-2.42-23.45,1.21-9.36,5.07-17.06,11.15-22.28,9.77-8.37,22.1-7.81,26.74-7.6,27.51,1.26,44.41,26.62,47.52,31.69l-4.26,2.61c-2.88-4.69-18.5-28.17-43.48-29.31-4.1-.19-15-.68-23.26,6.4-10.8,9.26-11.83,27.27-7.27,40.27,3.85,11,17.56,22.29,40.74,33.58,24.06,11.72,50.38,19.38,78.21,22.77l-.6,4.96Z" />
        <path class="cls-1"
            d="M473.23,482.07c-16.23,0-31.97-2.4-46.99-7.18-20.33-6.47-45.63-14.52-51.65-35.7-2.91-10.23-2.45-25.15,7.54-36.35,11.14-12.49,30.36-15.96,47.83-8.64l-1.93,4.61c-15.51-6.5-32.45-3.54-42.17,7.36-8.65,9.7-8.89,23.11-6.46,31.65,5.28,18.6,28.17,25.88,48.35,32.3,20.17,6.42,41.69,8.4,63.96,5.9l.56,4.97c-6.41.72-12.77,1.08-19.04,1.08Z" />
        <path class="cls-1"
            d="M707.21,671.28c-19.74,0-37.46-.55-52.34-1.28-49.12-2.42-68.68-6.54-87.22-18.39-29.88-19.1-43.76-47.37-53.9-68-15.8-32.18-23.96-67.54-24.26-105.08l5-.04c.29,36.79,8.27,71.41,23.74,102.92,9.87,20.11,23.4,47.65,52.1,66,15.75,10.07,31.73,15,84.78,17.61,41.2,2.03,104.41,2.64,171.56-5.98,14.1-1.81,41.41-5.6,65.85-10.67,45.74-9.49,47.98-16.51,47.97-17.82,0-.86-2.93-2.79-7.77-5.99-5.58-3.69-14.02-9.27-27.21-19.03-10.38-7.68-16.96-12.99-20.81-22.03-4.55-10.66-2.95-20.56-2.18-25.32.08-.52,7.53-46.77,12.99-99.92,1.34-13.08,1.92-35.38-2.98-67.37-3.87-25.28-9.73-63.46-36.61-104-7.62-11.49-30.8-46.44-76.08-70.17-16.22-8.5-49.84-22.72-93.17-22.72-.22,0-.44,0-.66,0-43.18.15-74.27,14.22-90.98,21.78-18.74,8.48-42.07,19.04-64.21,42.44-29.81,31.5-40.57,68.85-44.34,94.64l-4.95-.72c3.88-26.5,14.95-64.91,45.66-97.36,22.82-24.11,47.65-35.35,65.78-43.56,17.05-7.72,48.77-22.07,93.03-22.22.23,0,.45,0,.68,0,44.4,0,78.86,14.57,95.49,23.29,46.41,24.32,70.13,60.08,77.92,71.83,27.49,41.45,33.69,81.86,37.39,106,4.98,32.52,4.39,55.27,3.02,68.64-5.48,53.3-12.94,99.68-13.02,100.14-.7,4.35-2.15,13.29,1.83,22.62,3.24,7.61,8.59,12.13,19.19,19.97,13.09,9.68,21.46,15.21,27,18.88,7.66,5.07,9.97,6.59,10.01,10.1.06,5.57-5.78,13.19-51.95,22.77-24.6,5.1-52.05,8.92-66.23,10.74-43.26,5.55-84.89,7.3-120.11,7.3Z" />
        <path class="cls-1"
            d="M642.75,713.73c-3.08,0-4.83-.37-6.43-.83-4.09-1.17-17.68-5.98-20.75-18.82-2.63-11.01,3.62-23.25,15.21-29.76l2.45,4.36c-9.64,5.42-14.91,15.39-12.79,24.24,2.5,10.47,14.81,14.48,17.25,15.18,2.68.77,6.31,1.26,20.92-1.06,15.91-2.53,23.89-3.8,34.5-7.87,2.39-.92,4.6-1.73,6.62-2.48,9.41-3.48,14.6-5.39,17.15-9.5,3.82-6.17,3.04-13.78,1.7-19.07l4.85-1.22c2.25,8.94,1.46,16.87-2.3,22.93-3.45,5.58-9.56,7.83-19.67,11.56-2.01.74-4.19,1.55-6.56,2.46-11.1,4.25-19.25,5.55-35.49,8.13-8.22,1.31-13.25,1.77-16.66,1.77Z" />
        <path class="cls-1"
            d="M572.46,695.33c-2.5,0-4.96-.1-7.68-.33-16.04-1.37-20.17-5.38-21.53-6.7-1.22-1.18-7.26-7.54-6.76-16.93.4-7.44,4.75-12.31,7.63-15.53,6.51-7.29,14.63-10.42,20.29-11.77l1.16,4.87c-4.96,1.18-12.06,3.91-17.71,10.23-2.7,3.02-6.06,6.79-6.37,12.47-.39,7.38,4.67,12.51,5.24,13.07,3.48,3.38,11.97,4.75,18.47,5.3,8.07.69,13.64.21,25.85-.85l1.72-.15c7.82-.67,15.9-1.35,24.01-2l.4,4.98c-8.11.65-16.18,1.32-23.98,2l-1.72.15c-8.25.71-13.71,1.19-19.03,1.19Z" />
        <path class="cls-1"
            d="M555.41,348.07c-4.82,0-8.66-1.46-10.46-2.3-7.34-3.42-12.46-10.43-14.39-19.76-.61-2.96-1.89-9.1,1.19-15.58,4.2-8.83,13.1-11.59,16.73-12.37,9.35-2,16.79,2.04,18.85,3.32,8.41,5.26,13.19,14.83,12.16,24.39-1.03,9.63-7.74,18.12-16.69,21.1h0c-2.61.87-5.1,1.2-7.38,1.2ZM553.67,302.51c-1.31,0-2.7.13-4.15.44-2.27.49-9.93,2.62-13.27,9.63-2.36,4.96-1.35,9.81-.81,12.42,1.61,7.74,5.73,13.51,11.61,16.24,1.65.77,7.55,3.1,14.15.9,7.13-2.38,12.48-9.17,13.31-16.9,1-9.32-4.68-16.39-9.84-19.61-1.34-.83-5.5-3.11-11-3.11Z" />
        <path class="cls-1"
            d="M679.93,411.41c-4.49,0-8.26-1.28-10.52-2.28-3.39-1.5-11.52-5.96-13.83-15.01-2.19-8.57,2.33-15.68,6.31-21.96,3.77-5.94,7.67-12.08,15.49-14.08,10.36-2.65,18.85,4.2,19.21,4.49,10.59,8.7,7.92,23.86,7.27,26.81-.84,3.84-4.51,16.69-16.63,20.83-2.55.87-5.01,1.2-7.3,1.2ZM682.23,362.47c-1.16,0-2.37.13-3.61.45-5.9,1.51-8.96,6.33-12.51,11.92-3.78,5.95-7.34,11.56-5.69,18.04,1.77,6.93,8.28,10.47,11,11.67,2.75,1.21,8.24,2.95,14.18.92h0c9.65-3.29,12.67-13.97,13.37-17.17.54-2.45,2.78-15.03-5.56-21.88-.06-.05-4.91-3.96-11.19-3.96Z" />
        <path class="cls-1"
            d="M773.07,589.03c-8.56,0-19.71-6.52-25.36-19.53-1.52-3.51-2.29-6.83-.2-34.19.44-5.8.79-9.82,1.08-13.04.42-4.77.69-7.92.92-12.88.39-8.62.39-17.29,0-25.77l4.99-.23c.4,8.64.4,17.46,0,26.23-.23,5.07-.51,8.26-.93,13.09-.28,3.21-.63,7.21-1.07,12.99-1.95,25.55-1.34,29.18-.2,31.81,3.68,8.46,12.5,17.1,21.54,16.5,10.26-.7,16.56-13.02,19.94-19.64,8.25-16.13,5.88-32.59,4.75-40.51-1.15-8.01-3.44-15.86-6.8-23.33l4.56-2.06c3.56,7.89,5.98,16.19,7.2,24.67,1.21,8.42,3.72,25.95-5.25,43.49-3.83,7.5-10.97,21.47-24.06,22.36-.36.02-.73.04-1.1.04Z" />
        <path class="cls-1"
            d="M934.94,624.82l-1.87-4.64c16.99-6.86,27.95-22.44,25.48-36.24-1.46-8.16-7.91-17.88-16.17-20.02-3.75-.97-7.36-.31-10.25.23-2.93.54-5.97,1.1-7.33-1.48-1.5-2.85,1.04-5.29,4.56-8.67,1.97-1.89,4.42-4.24,6.7-7.07,1.62-2.01,15.66-20.04,9.64-34.47-2.13-5.09-7.17-11.19-13.23-12.52-1.51-.33-2.76-.32-3.88-.31-1.59.01-3.77.03-4.81-1.98-1.64-3.18,1.63-5.83,7.07-10.23,4.57-3.7,10.83-8.76,16.2-15.48,4.37-5.47,15.97-20.01,12.51-35.91-1.85-8.49-8.11-18.41-16.07-20.08-2.52-.53-4.85-.12-6.73.21-2.09.37-4.69.82-5.95-1.44-1.65-2.98,1.37-5.38,5.96-9.03,5.2-4.13,13.05-10.38,18.04-19.4,9.36-16.93,4.02-35.3,3.79-36.07-4.4-14.67-16.19-27.26-29.34-31.33-2.75-.85-5.57-1.37-8.06-1.82-5.14-.94-9.19-1.69-9.68-5.22-.41-2.98,2.29-4.48,4.9-5.93,2.65-1.47,5.94-3.31,8.56-6.89,3.63-4.96,4.82-11.74,3.55-20.15-1.32-8.71-5.84-14.31-9.47-18.81-7.52-9.32-25.2-25.74-38.23-21.21-4.22,1.47-7.25,4.89-9.26,7.15-1.72,1.94-3.66,4.14-5.98,2.54-2.32-1.6-1.12-4.24.69-8.23,1.6-3.52,3.8-8.35,5.3-14.43,1.66-6.72,3.93-15.93.11-25.47-4.49-11.21-14.66-16.33-17.67-17.63-8.09-3.5-14.83-2.35-29.59.17-16.13,2.76-25.87,4.42-32.52,12.16-2.38,2.77-4.07,5.88-5.27,8.79-.93,4.23-2.08,7.59-2.75,9.55-.03.08-.05.15-.08.23-.31,1.52-.49,2.31-1.46,2.91l-.91.57-2.12-.54-.53-.97c-.51-.96-.36-1.66.18-3.27.41-2.03,1.18-5.77,2.87-9.97,1.5-7.01,2.29-16.34-1.15-25.01-3.45-8.68-9.92-13.65-14.2-16.94-16.64-12.78-36.05-11.84-43.36-11.49-8.21.4-19.46.95-30.72,8.57-8.52,5.78-14.77,13.33-18.07,21.83-1.27,3.26-2.07,6.59-2.65,9.02-.85,3.55-1.42,5.88-4.01,5.55-2.6-.34-2.45-2.97-2.31-5.29.23-3.84.66-11-2.64-18.15-2.14-4.65-5.26-7.93-7.54-10.32-3.9-4.1-8.05-7.3-12.33-9.5-8.56-4.41-19.31-5.4-30.28-2.79-15.44,3.67-24.38,14.15-28.68,19.19-4.91,5.76-14.05,16.47-14.4,32.43-.17,7.72,1.8,15.59,5.7,22.75l-4.39,2.39c-4.32-7.93-6.5-16.66-6.3-25.25.4-17.74,10.66-29.78,15.6-35.57,4.64-5.44,14.29-16.76,31.32-20.81,12.12-2.88,24.1-1.74,33.72,3.21,4.78,2.46,9.38,5.99,13.67,10.5,2.52,2.65,5.97,6.27,8.46,11.68,1.34,2.92,2.15,5.83,2.63,8.56,3.72-9.22,10.52-17.37,19.7-23.58,12.42-8.41,24.97-9.02,33.28-9.43,7.81-.38,28.55-1.39,46.64,12.51,4.43,3.4,11.84,9.1,15.8,19.06,2.17,5.45,2.87,11.07,2.78,16.29,7.82-9.11,18.82-10.99,35.47-13.83,14.8-2.53,22.96-3.92,32.41.17,3.46,1.5,15.13,7.38,20.33,20.36,4.42,11.04,1.82,21.56.11,28.53-1,4.06-2.31,7.63-3.54,10.59,1.76-1.4,3.85-2.71,6.29-3.55,7.25-2.52,15.77-.56,25.34,5.8,9.41,6.25,16.48,14.59,18.42,16.99,3.8,4.7,9,11.14,10.53,21.2,1.48,9.76-.01,17.78-4.45,23.85-3.26,4.46-7.42,6.77-10.17,8.3-.47.26-1.01.56-1.49.85,1.24.38,3.19.73,4.74,1.02,2.62.48,5.6,1.03,8.63,1.97,14.68,4.54,27.8,18.47,32.66,34.67.64,2.15,5.98,21.5-4.21,39.93-5.47,9.9-13.8,16.51-19.31,20.89-.5.4-1.04.83-1.57,1.25,1.78-.21,3.91-.29,6.2.2,10.13,2.13,17.69,13.64,19.93,23.91,3.97,18.22-8.71,34.11-13.49,40.09-5.71,7.15-12.21,12.41-16.96,16.25-1.39,1.12-2.88,2.33-4,3.33,1.01.03,2.2.13,3.54.42,7.84,1.73,14.07,9.02,16.77,15.48,3.06,7.32,2.41,15.96-1.91,25.67-3.13,7.04-7.26,12.39-8.45,13.86-2.48,3.08-5.06,5.55-7.13,7.54-.55.52-1.15,1.1-1.69,1.64.03,0,.06-.01.09-.02,3.02-.56,7.59-1.41,12.42-.15,10.58,2.74,18.12,14.4,19.83,23.98,2.93,16.34-9.07,33.9-28.52,41.76Z" />
    </symbol>

    <symbol id="violetchi" viewBox="0 0 1000 1000">
        <title>violetchi</title>
        <path class="cls-1"
            d="M731.5,541.06c-2.79,0-5.6-.01-9.08-.03-8.4-.04-19.91-.09-43.41-.03h-2.9c-6.46.03-10.73.04-17.13,0-16.92-.11-28.58-.47-37.94-.76-2.87-.09-5.54-.17-8.1-.24-22.01-.58-36.78-.05-47.56.33-17.94.64-26.13.93-40.27-4.5-7.31-2.81-17.32-6.66-27.31-16.01-22.2-20.78-24.71-50.8-25.78-63.62-1.17-13.95.3-25.12,2.51-42.03,1.53-11.69,3.74-23.39,6.55-34.78l4.85,1.2c-2.77,11.21-4.94,22.72-6.45,34.23-2.17,16.59-3.61,27.55-2.49,40.97,1.02,12.25,3.42,40.92,24.22,60.38,9.28,8.69,18.76,12.33,25.69,14.99,13.18,5.06,20.53,4.8,38.29,4.17,10.85-.39,25.71-.92,47.88-.33,2.57.07,5.25.15,8.13.24,9.34.29,20.96.65,37.82.76,6.37.04,10.63.03,17.08,0h2.9c23.52-.08,35.04-.02,43.45.02,7.15.03,11.47.05,18.53-.03,34.75-.39,52.18-.59,63.52-2.95,14.85-3.08,37.29-7.74,57.88-25.45,7.21-6.2,19.26-16.57,25.27-33.92,3.59-10.39,3.68-21.35,3.86-43.2.09-11.47-.48-20.15-.99-27.81-1.04-15.55-1.56-23.35-3.93-32.55-4.13-16.04-8.03-22.61-10.6-26.16-1.98-2.74-4.24-5.31-6.7-7.66l3.45-3.62c2.68,2.55,5.14,5.36,7.3,8.34,2.81,3.88,7.05,10.98,11.4,27.84,2.49,9.65,3.02,17.61,4.07,33.46.52,7.75,1.1,16.53,1.01,28.19-.18,22.39-.28,33.63-4.14,44.8-6.44,18.63-19.14,29.55-26.73,36.08-21.57,18.55-44.77,23.37-60.12,26.55-11.82,2.45-29.4,2.65-64.43,3.05-3.68.04-6.61.06-9.57.06Z" />
        <path class="cls-1"
            d="M561.08,269l-.17-5c30.53-1.04,61.51-1.71,92.06-2,9.98-.1,19.21-.21,27.91-.32,38.53-.49,66.36-.84,102.26,1.33,5,.3,10.06.64,15.03,1l-.37,4.99c-4.95-.36-9.99-.7-14.97-1-35.72-2.15-63.48-1.8-101.9-1.32-8.71.11-17.95.23-27.93.32-30.51.29-61.45.96-91.94,2Z" />
        <path class="cls-1"
            d="M489.89,383.74c-2.07,0-4.25-.25-6.5-.82-11.64-2.95-17.19-12.46-18.62-15.3-5.44-10.86-2.62-23.1-1.15-27.86.62-2.01,1.34-3.8,1.98-5.39.23-.56.49-1.21.72-1.81-.09.04-.18.09-.27.13-1.37.64-3.07,1.43-5.22,2.17-6.75,2.32-12.71,2.26-14.96,2.13-.56-.03-13.78-.9-19.85-9-3.78-5.05-4.67-12.87-2.42-21.46,3.11-11.89,11.12-22.22,20.41-26.32,9.21-4.07,19.41-2.3,26.16-1.14.47.08.97.17,1.47.25-1.97-1.66-4.43-3.98-6.71-7.46-4.56-6.96-5.46-13.31-5.41-17.4.02-1.74.52-17.14,11.44-22.24,5.73-2.67,16.18-2.33,26.75,7.43,6.48,5.98,8.6,12.84,10.15,17.85.81,2.63,1.65,5.34,2.62,5.53,1.96.38,5.41-5.71,7.93-10.15,4.6-8.1,10.33-18.19,19.41-18.88,11.31-.86,24.25,13.39,25.68,28.25.27,2.77.66,12.44-5.48,20.73-3.52,4.75-8.03,7.42-11.02,9.19-.12.07-.24.14-.36.21.07,0,.13,0,.19.01,3.64.22,9.14.56,13.71,4.12,7.69,5.98,8.96,17.96,6.9,26.56-.71,2.94-4.95,17.78-18.89,20.86-9.54,2.1-18.63-2.39-23.41-7.78-.84-.95-1.55-1.92-2.16-2.88-.07,5.81-.51,13.48-2.54,21.81-1.85,7.62-3.32,13.63-8.63,19.14-.43.45-9.33,9.51-21.91,9.51ZM468.33,326.75c.81,0,1.58.24,2.3.86,2.29,1.97,1.04,5.06-.4,8.64-.6,1.49-1.28,3.18-1.84,4.99-1.29,4.18-3.78,14.9.85,24.14.84,1.68,5.55,10.2,15.38,12.7,13.14,3.33,23.48-7.2,23.58-7.31,4.17-4.33,5.46-8.99,7.37-16.86,2.55-10.48,2.45-20,2.39-25.69-.06-5.2-.08-7.81,2.69-8.2,2.53-.35,3.26,2.14,3.79,3.96.68,2.3,1.7,5.78,4.42,8.85,3.81,4.29,11.03,7.88,18.59,6.22,11.04-2.43,14.52-14.71,15.11-17.14,1.76-7.31.57-17.03-5.1-21.44-3.36-2.61-7.57-2.87-10.95-3.08-3.09-.19-6.29-.39-6.96-3.35h0c-.65-2.9,2.04-4.49,4.88-6.17,2.8-1.65,6.63-3.92,9.55-7.86,5.21-7.03,4.68-15.62,4.52-17.27-1.24-12.94-12.5-24.34-20.32-23.75-6.43.49-11.22,8.93-15.45,16.37-4.15,7.31-7.74,13.63-13.21,12.6-3.92-.74-5.1-4.55-6.46-8.96-1.46-4.72-3.28-10.59-8.77-15.66-4.4-4.07-13.84-10.03-21.25-6.57-8.29,3.87-8.55,17.2-8.56,17.76-.04,3.4.72,8.69,4.59,14.6,2.44,3.73,5.13,5.9,7.1,7.48,1.97,1.58,4,3.22,3.18,5.68-1.09,3.27-4.86,2.62-10.08,1.71-6.16-1.06-15.46-2.67-23.28.78-7.83,3.46-14.9,12.71-17.59,23.02-1.86,7.11-1.28,13.37,1.58,17.2,4.69,6.26,16.03,7,16.15,7,1.96.12,7.13.16,13.04-1.87,1.9-.65,3.47-1.39,4.73-1.97,1.54-.72,3.03-1.42,4.41-1.42Z" />
        <path class="cls-1"
            d="M842.77,368.1c-2.07,0-4.24-.25-6.49-.82-11.64-2.95-17.2-12.46-18.62-15.3-5.44-10.86-2.62-23.1-1.15-27.86.62-2.01,1.34-3.8,1.98-5.39.23-.56.49-1.21.72-1.81-.09.04-.18.09-.27.13-1.37.64-3.07,1.43-5.22,2.17-6.75,2.32-12.71,2.27-14.96,2.13-.56-.03-13.79-.91-19.85-9-3.78-5.05-4.67-12.87-2.42-21.46,3.11-11.89,11.12-22.22,20.41-26.32,9.21-4.07,19.41-2.3,26.16-1.14.47.08.97.17,1.47.25-1.97-1.66-4.43-3.98-6.71-7.46-4.56-6.96-5.46-13.31-5.41-17.4.02-1.74.52-17.14,11.44-22.24,5.73-2.67,16.18-2.33,26.75,7.43,6.48,5.98,8.6,12.84,10.15,17.85.81,2.63,1.65,5.34,2.62,5.53,1.98.37,5.41-5.71,7.93-10.15,4.6-8.1,10.33-18.19,19.41-18.88,11.31-.88,24.25,13.39,25.68,28.25.27,2.77.66,12.44-5.48,20.73-3.52,4.75-8.03,7.42-11.02,9.19-.12.07-.24.14-.36.21.07,0,.13,0,.2.01,3.64.22,9.14.56,13.71,4.12,7.69,5.98,8.96,17.96,6.9,26.56-.71,2.94-4.95,17.78-18.89,20.86-9.53,2.1-18.63-2.39-23.41-7.78-.84-.95-1.55-1.92-2.16-2.88-.07,5.81-.51,13.48-2.54,21.82-1.85,7.62-3.32,13.63-8.63,19.14-.43.45-9.34,9.5-21.92,9.51ZM821.22,311.1c.81,0,1.58.24,2.3.86,2.29,1.97,1.04,5.06-.4,8.64-.6,1.49-1.28,3.18-1.84,4.99-1.29,4.18-3.79,14.9.85,24.14.84,1.68,5.55,10.2,15.38,12.7,13.13,3.33,23.17-6.88,23.59-7.31,4.17-4.33,5.46-8.99,7.37-16.85,2.55-10.48,2.45-20,2.39-25.69-.05-5.2-.08-7.81,2.69-8.2,2.53-.35,3.26,2.14,3.79,3.96.68,2.3,1.7,5.78,4.42,8.85,3.81,4.29,11.03,7.88,18.59,6.22,11.04-2.43,14.52-14.71,15.11-17.14,1.76-7.31.57-17.03-5.1-21.44-3.36-2.61-7.57-2.87-10.95-3.08-3.09-.19-6.29-.39-6.96-3.35h0c-.65-2.9,2.04-4.49,4.88-6.17,2.8-1.65,6.63-3.92,9.55-7.86,5.21-7.03,4.68-15.62,4.52-17.27-1.24-12.94-12.49-24.34-20.32-23.75-6.43.49-11.22,8.93-15.45,16.37-4.15,7.31-7.73,13.64-13.21,12.6-3.92-.74-5.1-4.55-6.46-8.96-1.46-4.72-3.28-10.59-8.77-15.66-4.4-4.07-13.83-10.03-21.25-6.57-8.29,3.87-8.55,17.2-8.56,17.76-.04,3.4.72,8.69,4.59,14.6,2.44,3.73,5.13,5.9,7.1,7.48,1.97,1.58,4,3.22,3.18,5.68-1.09,3.27-4.86,2.62-10.08,1.71-6.16-1.07-15.46-2.67-23.28.78-7.83,3.46-14.9,12.71-17.59,23.02-1.86,7.11-1.28,13.37,1.58,17.2,4.68,6.25,16.03,7,16.15,7,1.95.12,7.13.16,13.04-1.87,1.9-.65,3.47-1.39,4.73-1.97,1.54-.72,3.04-1.42,4.41-1.42Z" />
        <path class="cls-1"
            d="M639.77,686.13c-.7,0-1.41-.05-2.13-.15-11.98-1.74-17.27-17.5-19.01-22.68-1.94-5.77-2.98-11.67-1.13-44.93.09-1.68.19-3.3.28-4.84.23-3.95.46-7.97.57-11.18l-1.1,2.26c-6.04,12.41-7.25,14.35-9.92,16.03-4.52,2.82-12.05,3.54-16.85-.14-5.86-4.5-5.62-14.49,1.08-44.53,2.9-13.02,6.28-26.2,10.04-39.15l4.8,1.39c-3.73,12.86-7.08,25.93-9.96,38.85-6.61,29.66-6.02,37.09-2.92,39.47,2.89,2.22,8.2,1.71,11.15-.14,1.46-.91,2.56-2.65,8.08-13.97l1.17-2.41c3.46-7.13,4.08-8.41,6.54-7.95,3.53.67,3.3,4.71,2.31,21.76-.09,1.54-.18,3.16-.28,4.83-1.8,32.29-.82,38.02.87,43.07,4.02,11.96,9.06,18.46,14.99,19.32,6.51.95,12.62-5.04,12.88-5.3,2.62-2.6,3.81-5.89,6.41-13.08,1.24-3.42,2.2-6.76,3.95-12.84.46-1.6.84-2.94,1.15-4.07,1.49-5.3,1.84-6.56,3.59-8.11,2.14-1.9,4.45-2.45,16.62-2.63,3.68-.05,6.17-.04,9.92-.02l4.12.02c7.66.03,11.51.04,13.95,0,2.56-.04,5.15-.03,7.66,0,2.12.02,4.24.03,6.36,0h.82c5.04-.07,6.93-.09,8.86,1.63,2.73,2.42,2.46,5.81,2.06,10.95-.07.93-.15,1.96-.23,3.08-.72,11.11-.94,16.15,1.49,19.32,2.33,3.04,6.09,3.79,7.5,4.07,4.47.88,9.52-.46,12.86-3.42,1.86-1.65,3.49-4.5,6.18-24.46,1.19-8.85,1.87-15.64,1.99-16.91.82-8.52,1.6-16.57,1.99-26.85.18-4.83.23-8.89.27-12.16.11-9.38.16-13.27,3.6-14.17,2.49-.65,3.68.87,7.63,5.88,1.04,1.32,2.33,2.96,3.95,4.97,6.14,7.64,8.15,9.67,10.6,11.6,3.77,2.98,6.23,4.78,9.19,4.48,3.35-.35,5.62-3.14,6.24-3.99,3.22-4.42,2.19-10.74.6-16.9-3.44-13.32-9.42-27.93-17.78-43.44l4.4-2.37c8.55,15.86,14.68,30.85,18.22,44.56,1.9,7.35,3.04,15-1.4,21.1-.92,1.27-4.36,5.45-9.76,6.01-5.13.54-8.86-2.41-12.81-5.52-2.76-2.18-4.96-4.38-11.4-12.4-1.63-2.03-2.93-3.68-3.98-5.01-.78-.99-1.49-1.89-2.07-2.61-.16,1.91-.19,4.83-.23,7.85-.04,3.29-.09,7.39-.27,12.29-.39,10.43-1.18,18.55-2.01,27.15-.17,1.81-.84,8.38-2.01,17.09-2.84,21.09-4.65,24.72-7.82,27.54-4.54,4.02-11.1,5.78-17.15,4.58-1.74-.34-7.02-1.39-10.5-5.93-3.67-4.79-3.26-11.15-2.51-22.68.07-1.14.16-2.19.23-3.14.32-4.09.44-6.09-.39-6.83-.47-.42-1.69-.42-5.49-.38h-.83c-2.15.03-4.3.02-6.45,0-2.47-.02-5.03-.04-7.53,0-2.5.04-6.36.03-14.05,0l-4.13-.02c-3.73-.02-6.19-.04-9.82.02-11.14.17-12.65.72-13.38,1.37-.6.54-.76.96-2.1,5.73-.32,1.13-.7,2.48-1.16,4.09-1.78,6.18-2.76,9.58-4.05,13.16-2.69,7.43-4.18,11.53-7.59,14.92-.76.75-7.14,6.85-14.99,6.85Z" />
        <path class="cls-1"
            d="M679.56,509.42c-4.34,0-6.7-.29-7.87-.44-9.6-1.2-15.41-3.52-17.78-7.1-3.05-4.62-2.4-10.2-1.32-14.05l4.81,1.35c-.8,2.85-1.33,6.9.68,9.95,1.43,2.16,6.61,3.95,14.22,4.9,2.25.28,9.09,1.14,27.4-1,13.68-1.6,15.92-2.81,17.6-4.35,3.77-3.48,4.91-8.64,5.2-12.36l4.98.39c-.51,6.61-2.87,12.02-6.8,15.64-2.99,2.76-6.52,4.02-20.4,5.65-9.62,1.12-16.24,1.44-20.73,1.44Z" />
        <path class="cls-1"
            d="M575.14,499.22c-1.9,0-3.43-.12-4.42-.23-10.35-1.14-18.32-5.16-23.68-11.93-7.35-9.28-6.76-19.75-6.54-23.69.58-10.34,4.41-17.33,7.51-21.38,2.1-2.74,4.24-4.67,6.13-6.36,2.91-2.62,4.32-3.98,4.35-6.16.04-2.11-1.21-3.75-2.3-5.2l-.19-.26c-5.17-6.87-9.34-15.89-12.41-26.83l4.81-1.35c2.9,10.33,6.8,18.8,11.59,25.17l.18.25c1.1,1.45,2.84,3.75,3.24,6.84,6.28-1.75,18.23-3.53,29.84,3.26,3.98,2.33,11.24,7.66,15.06,17.23,3.86,9.67,2.01,18.3,1.12,22.45-.94,4.4-2.52,11.77-8.63,18.2-8.11,8.53-19.09,9.99-25.67,9.99ZM562.51,433.61c-1.12,2.21-3.03,3.93-5.01,5.72-1.73,1.55-3.69,3.32-5.51,5.69-2.68,3.49-5.98,9.55-6.49,18.62-.19,3.42-.71,12.52,5.46,20.31,6.8,8.57,16.97,9.7,20.31,10.07,3.84.42,17.06,1.08,25.91-8.24,5.14-5.41,6.48-11.66,7.37-15.8.85-3.95,2.42-11.29-.88-19.55-3.27-8.18-9.51-12.76-12.94-14.77-11.83-6.91-24.54-3.34-28.23-2.05Z" />
        <path class="cls-1"
            d="M813.31,485.42c-2.04,0-4.25-.14-6.63-.44-3.77-.48-11.6-1.49-18.36-7.63-6.27-5.69-9.76-14.16-9.82-23.83-.07-10.97,5.33-19.74,6.41-21.39,1.53-2.33,3.11-4.16,4.51-5.78,2.6-3.01,3.83-4.55,3.54-6.57-.08-.57-.2-.8-.98-2.13-.52-.89-1.24-2.12-2.21-4.01-1.55-3.02-2.94-6.14-4.12-9.26l4.68-1.76c1.11,2.95,2.42,5.89,3.88,8.74.91,1.78,1.59,2.93,2.08,3.78.71,1.21,1.19,2.03,1.46,3.16,5.62-1.12,16.24-1.96,26.5,4.05,3.5,2.05,9.98,6.75,13.99,15.07,4.89,10.16,3.21,19.77,2.21,25.52-.98,5.59-1.62,9.29-4.46,13.07-2.29,3.05-8.76,9.42-22.69,9.42ZM797.42,423.49c-.85,2.23-2.5,4.14-4.22,6.13-1.3,1.5-2.77,3.2-4.12,5.26-.94,1.44-5.65,9.08-5.59,18.61.05,8.26,2.96,15.42,8.18,20.17,5.6,5.08,12.13,5.92,15.64,6.37,4.16.53,18.2,1.6,24.69-7.02,2.12-2.82,2.59-5.53,3.54-10.93.96-5.48,2.41-13.77-1.79-22.49-3.43-7.13-9-11.16-12.01-12.93-9.75-5.72-19.95-4.23-24.31-3.17Z" />

    </symbol>
</svg>