<?xml version="1.0" encoding="UTF-8"?>
<svg id="kutchipatchi" xmlns="http://www.w3.org/2000/svg" viewBox="0 0 1068.5 800">
  <path class="cls-1" d="M653.26,648.9h-.84c-25.93-.09-94.8-.34-127-35.81-16.04-17.67-21.38-41.81-22.06-64.86l-.61.27c-3.73,1.63-16.77,6.46-28.41-.12-6-3.4-13.46-11.04-14.92-28.09-2-23.49,14.9-42.27,34.47-64.03,8.02-8.91,16.72-17.31,25.87-24.97-9.26-31.32-12.91-62.86-10.84-93.75,1.34-19.95,5.02-37.87,10.34-50.43,12.62-29.73,33.19-46.93,41.45-52.94,20-14.56,37.68-17.96,69.78-24.12,27.45-5.27,56.1-6.8,85.16-4.55,34.93,2.71,52.47,4.07,73.22,16.13,27.95,16.22,41.19,40.04,48.32,52.83,15.08,27.1,18.01,50.92,20.6,71.93,3.12,25.35,2.44,51.2-1.99,76.88,5.56,4.64,10.89,9.67,15.88,14.95,7.84,8.32,22.44,23.82,30.98,47.1,5.39,14.7,10.04,27.38,3.05,37.47-9.34,13.45-31.72,10.56-34.24,10.19l-.51-.08c2.24,27.97-2.73,50.3-14.83,66.5-12.47,16.7-33.51,27.75-35.87,28.96-15.84,8.1-30.52,10.12-57.17,13.79-5.56.77-18.57,2.55-54.25,4.52-17.34.96-40.93,2.25-55.6,2.25h0ZM513.78,475.57c.18,0,.36.01.56.03l1.22.15.8,1.05c1.05,1.44.79,2.71-.87,10.92-4.78,23.74-17.49,86.81,14.09,121.58,30.53,33.64,97.6,33.88,122.86,33.97,14.41.06,38.5-1.27,56.07-2.24,35.49-1.96,48.34-3.73,53.83-4.48,28-3.86,40.99-5.87,55.37-13.22,2.24-1.15,22.21-11.63,33.91-27.32,19.86-26.61,15.93-67.66,6-104.04-2.33-7.75-4.1-13.56-5.45-17.91-.96-2.86-1.92-5.65-2.91-8.38-1.81-5.03-1.92-5.33-1.28-6.57l.56-1.09,1.19-.35c2.72-.77,3.57,1.69,4.55,4.52.66,1.91,1.61,4.86,2.82,8.78,2.08,6.03,4.66,14,7.05,23.2,2.78,9.31,6.09,20.46,9.9,33.42,5.26.5,20.7,1.09,27.02-8.02,5.06-7.3,1.89-17.04-3.7-32.31-8.14-22.22-21.7-36.59-29.79-45.19-5.2-5.51-10.78-10.74-16.62-15.51l-1.27-1.05.29-1.62c4.59-25.66,5.35-51.5,2.23-76.81-2.52-20.51-5.38-43.74-19.92-69.88-6.85-12.32-19.62-35.26-46.22-50.7-19.65-11.41-36.76-12.74-70.84-15.39-28.56-2.22-56.71-.72-83.66,4.46-31.3,6.01-48.54,9.33-67.53,23.15-7.88,5.74-27.52,22.15-39.58,50.6-2.95,6.94-8.16,22.51-9.92,48.61-2.07,30.8,1.68,62.28,11.14,93.54l.54,1.79-1.44,1.19c-9.47,7.81-18.45,16.42-26.71,25.59-18.71,20.78-34.84,38.72-33.06,59.77,1,11.74,5.06,19.7,12.09,23.68,8.25,4.68,17.71,2.06,21.96.45,3.67-23.84,6.58-41.44,8.64-52.35,2.44-12.9,3.29-16.02,6.06-16.02h.01Z"/>
  <path class="cls-1" d="M601.66,689.58c-2.27,0-4.57-.1-6.88-.33-17.85-1.68-32.18-9.5-39.31-21.46-7.64-12.82-5.59-27.88-2.53-38.25l5.4,1.6c-2.75,9.3-4.63,22.7,1.97,33.78,6.11,10.25,19.2,17.26,35,18.74,17.9,1.69,35.51-4.07,44.88-14.66,5.27-5.94,8.44-13.75,9.44-23.2l5.59.6c-1.13,10.62-4.77,19.48-10.82,26.32-9.44,10.67-25.4,16.86-42.75,16.86h-.01Z"/>
  <path class="cls-1" d="M777.85,687.21c-5.92,0-11.75-.87-17.04-2.41-30.21-8.8-38.73-40.06-39.08-41.38l5.45-1.43c.32,1.2,8.02,29.49,35.2,37.4,11.9,3.47,35.55,4.73,48.76-12.52,12.79-16.7,6.02-37.78,5.2-40.13l5.31-1.85c.91,2.64,8.53,26.36-6.06,45.4-9.25,12.09-23.77,16.9-37.76,16.9h.01Z"/>
  <path class="cls-1" d="M572.63,318.05c-.81,0-1.62-.03-2.44-.11-7.42-.68-13.97-4.38-17.99-10.14-7.2-10.34-4.86-25.5,5.11-33.11,7.68-5.85,18.72-6.38,26.84-1.27,6.19,3.89,10.41,10.97,11.28,18.94.81,7.44-1.47,14.44-6.3,19.2h0c-4.23,4.19-10.14,6.48-16.5,6.48h0ZM571.74,275.58c-3.94,0-7.89,1.22-11.02,3.59-7.64,5.83-9.43,17.47-3.89,25.41,3.06,4.4,8.11,7.23,13.88,7.74,5.62.51,10.89-1.23,14.47-4.76,3.59-3.55,5.29-8.87,4.66-14.59-.68-6.18-4.01-11.85-8.68-14.79-2.78-1.74-6.09-2.61-9.41-2.61h-.01Z"/>
  <path class="cls-1" d="M788.68,315.01c-.81,0-1.62-.03-2.44-.11-7.42-.68-13.97-4.38-17.99-10.14-7.2-10.34-4.86-25.5,5.11-33.11,7.68-5.85,18.72-6.38,26.84-1.27,6.19,3.89,10.41,10.97,11.28,18.94.81,7.44-1.47,14.44-6.3,19.2l-1.98-2,1.98,2c-4.23,4.18-10.14,6.48-16.5,6.48h0ZM787.79,272.53c-3.94,0-7.89,1.22-11.02,3.59-7.64,5.83-9.43,17.47-3.89,25.41,3.06,4.4,8.11,7.23,13.88,7.74,5.62.51,10.89-1.23,14.47-4.76h0c3.59-3.55,5.29-8.87,4.66-14.59-.68-6.18-4.01-11.85-8.68-14.79-2.78-1.74-6.09-2.61-9.41-2.61h-.01Z"/>
  <path class="cls-1" d="M717.32,373.22c-2.67,0-5.55-.02-8.64-.06-20.66-.23-36.08-.82-42.67-1.08l-1.29-.05c-13.71-.52-24.09-.6-32.41-.65-20.4-.15-27.28-.2-32.72-7.18-8.2-10.53-5.26-28.07,2.19-38.28,7.38-10.12,18.56-12.35,35.49-15.73,10.76-2.15,19.52-2.71,56.86-2.31,29.21.32,35.65.73,43.97,4.78,16.13,7.86,24.85,18.04,25.21,29.45.41,12.46-9.32,21.26-12.3,23.67-7.97,6.4-16.81,7.43-33.66,7.43h-.02ZM675.3,313.39c-22.82,0-29.1.75-36.95,2.32-17.53,3.5-26.21,5.54-32.04,13.53-6.27,8.6-8.7,23.31-2.31,31.5h0c3.62,4.65,8.45,4.86,28.33,5.01,8.37.07,18.8.14,32.59.66l1.31.05c6.56.25,21.92.84,42.52,1.07,22.73.25,31.33-.19,38.73-6.13,1.76-1.42,10.53-8.99,10.21-19.1-.29-9.06-8.13-17.78-22.06-24.57-6.94-3.39-12-3.89-41.56-4.22-7.28-.08-13.46-.12-18.74-.12h-.02Z"/>
  <path class="cls-1" d="M675.37,428.12c-8.65,0-17.24-.27-27.62-.95-41.02-2.69-46.64-6.69-50.54-12.49-7.21-10.74-3.44-25.41-2.61-28.25,3.22-11.02,10.49-17.64,14.54-20.61l3.33,4.54c-3.48,2.55-9.71,8.23-12.47,17.66-.43,1.47-4.05,14.7,1.89,23.52,2.07,3.08,4.92,7.32,46.25,10.02,21.92,1.44,35.08,1.04,62.73,0,22.48-.84,29.41-1.83,35.37-7.16,1.27-1.14,12.38-11.56,9.26-25.42-2.81-12.53-14.94-17.71-16.31-18.27l2.09-5.22c1.65.66,16.26,6.91,19.71,22.25,3.83,17.01-9.48,29.49-11,30.85-7.63,6.83-16.24,7.74-38.91,8.59-14.29.54-25.04.95-35.7.95h-.02Z"/>
</svg>