<?xml version="1.0" encoding="UTF-8"?>
<svg id="Layer_2" data-name="Layer 2" xmlns="http://www.w3.org/2000/svg" viewBox="0 0 1068.5 800">
  <path class="cls-1" d="M520,314.8c-1.13-14.13-1.73-28.6-1.79-42.99-.07-17.36-.11-26.92,1.84-35.31,5.04-21.61,15.56-37.96,31.25-48.62,10.85-7.37,29.37-15.26,56.02-11.06,8.18,1.29,29.91,4.72,44.2,22.2,10.04,12.28,11.62,25.85,14.76,52.9,1.43,12.34,2.06,24.83,1.85,37.17l52.92-2.56.22,4.46-57.71,2.79.06-2.4c.33-12.91-.27-26.01-1.77-38.94-3.04-26.18-4.57-39.32-13.78-50.59-13.21-16.17-33.72-19.4-41.44-20.62-20.23-3.19-38,.29-52.82,10.35-14.74,10.01-24.63,25.46-29.41,45.94-1.76,7.56-1.8,15.97-1.73,34.28.06,14.28.66,28.63,1.78,42.65l-4.45.35Z"/>
  <path class="cls-1" d="M601.39,561.27c-16.12-1.68-32.18-5.01-47.72-9.9-21.09-6.64-37.74-11.88-53.47-26.36-16.9-15.55-23.44-33.16-27.34-43.69-8.94-24.08-10.77-50.29-5.45-77.92,8.9-46.21,37.25-76.52,53.36-90.47l2.92,3.37c-15.67,13.57-43.26,43.05-51.9,87.95-5.16,26.81-3.4,52.22,5.25,75.52,3.77,10.15,10.07,27.13,26.18,41.96,15,13.8,31.24,18.91,51.79,25.38,15.25,4.8,31.02,8.07,46.84,9.72l-.46,4.44Z"/>
  <path class="cls-1" d="M854.52,299.64l-4.44-.36c1.01-12.3,1.01-24.79,0-37.1-1.98-24.22-3.18-38.83-13.01-53.35-8.54-12.61-21.08-21.93-37.26-27.7-10.21-3.64-29.22-10.41-48.22-.99-17.09,8.47-23.95,25.07-25.65,29.96-2.57,7.42-2.57,13-2.55,24.11v.14c.02,14.4.02,30.4,0,54.42h-4.46c.02-24.02.02-40.02,0-54.42v-.13c-.01-11.25-.02-17.45,2.8-25.58,1.84-5.29,9.27-23.27,27.88-32.49,20.7-10.25,40.86-3.07,51.7.79,17.1,6.09,30.38,15.98,39.46,29.4,10.49,15.49,11.72,30.54,13.76,55.48,1.03,12.56,1.03,25.29,0,37.84Z"/>
  <path class="cls-1" d="M779.54,563.97c-.44,0-.87,0-1.3,0l.03-4.46c18.01.13,63.53-2.92,96.58-34.18,4.1-3.88,15-14.19,23.62-31.49,3.84-7.71,12.65-28.61,11.37-55.99-.5-10.77-2.78-24.27-24.77-70.51-10.65-22.4-22.33-44.87-34.72-66.77l3.88-2.2c12.44,21.99,24.17,44.55,34.87,67.05,22.34,46.99,24.67,60.98,25.19,72.22,1.33,28.43-7.83,50.17-11.83,58.19-8.98,18.01-20.29,28.71-24.55,32.74-32.39,30.63-75.01,35.41-98.38,35.41Z"/>
  <path class="cls-1" d="M746.91,691.89c-3.29,0-6.76-1.17-10.06-3.42-8.54-5.84-9.27-17-9.14-21.96l-80.74-1.7c-.65,1.98-1.41,3.93-2.29,5.82-2.94,6.3-6.6,14.15-14.61,17.2-.97.37-9.68,3.49-15.57-1.24-4.62-3.71-4.74-9.84-4.4-18.78.85-22.25,4.34-43.12,4.49-44l.46-2.71c.93-5.44,1.87-11.02,2.11-14.27-.08.1-.17.21-.25.31-1.9,2.38-4.78,5.99-9.4,9.83-5.14,4.28-9.58,7.97-15.82,7.65-5.58-.29-10.98-3.64-13.45-8.32-3.39-6.43-.44-13.1,4.46-24.15l.83-1.87c4.54-10.29,9.03-21.06,13.35-32.03l4.15,1.63c-4.34,11.02-8.86,21.86-13.42,32.2l-.83,1.88c-4.49,10.15-6.97,15.75-4.59,20.27,1.74,3.29,5.74,5.74,9.74,5.95,4.29.24,7.63-2.37,12.73-6.62,4.27-3.56,6.98-6.95,8.77-9.19,2.1-2.63,3.62-4.52,5.91-3.68,3.49,1.28,2.64,6.29.11,21.17l-.46,2.7c-.15.87-3.59,21.46-4.43,43.43-.33,8.68-.02,12.92,2.74,15.12,4.02,3.22,11.12.57,11.19.55,6.32-2.41,9.42-9.05,12.15-14.92,1.02-2.19,1.88-4.48,2.55-6.81l.48-1.65,88.93,1.87-.3,2.45c-.02.14-1.66,14.22,7.07,20.19,3.41,2.33,6.79,3.16,9.77,2.36,3.73-.99,5.79-4.22,7.61-7.07,3.21-5.03,3.9-9.98,4.13-11.6,1.43-10.18,2.15-15.29,1.76-28.17-.33-11.12.58-22.68,2.71-34.37l4.39.8c-2.07,11.38-2.96,22.63-2.64,33.43.4,13.26-.34,18.49-1.81,28.92-.26,1.86-1.06,7.53-4.79,13.38-2.03,3.19-4.82,7.55-10.23,8.99-1.09.29-2.22.43-3.37.43Z"/>
  <path class="cls-1" d="M790.27,627.92c-7.9,0-17.81-7.99-24.67-20.51l3.91-2.14c7.33,13.37,17.83,19.97,23.04,17.75,3.06-1.3,5.05-6.2,5.82-9.99,1.32-6.48-1-11.99-2.55-15.63-4.83-11.43-10.21-23.09-16-34.66l3.99-2c5.83,11.66,11.25,23.41,16.12,34.92,1.65,3.9,4.41,10.43,2.81,18.27-.5,2.47-2.6,10.72-8.45,13.2-1.26.53-2.61.79-4.03.79Z"/>
  <path class="cls-1" d="M707.39,567.68c-18.85,0-42.8-.65-70.27-2.83-11.89-.94-23.93-2.15-35.78-3.58l.53-4.43c11.79,1.43,23.76,2.62,35.59,3.56,53.65,4.25,93.77,2.66,108.53,1.78,10.73-.64,21.5-1.54,32.01-2.67l.48,4.43c-10.58,1.14-21.42,2.04-32.22,2.69-7.29.43-20.72,1.04-38.88,1.04Z"/>
  <path class="cls-1" d="M674.05,525.6c-6.28,0-13.16-1.3-19.91-4.7-6.67-3.36-12.52-8.55-16.9-15.01l3.69-2.5c3.96,5.84,9.22,10.52,15.21,13.53,12.86,6.47,26.2,4.52,33.71.88,4.79-2.32,8.28-5.78,8.32-5.81,2.4-2.4,4.35-5.19,5.8-8.29l4.04,1.89c-1.67,3.57-3.92,6.79-6.69,9.55-.16.16-4.06,4.03-9.53,6.68-4.45,2.16-10.72,3.79-17.75,3.79Z"/>
  <path class="cls-1" d="M583.59,481.99c-7.81,0-14.18-1.19-18.06-1.92-11.18-2.1-29.9-5.61-43.26-22.2-6.15-7.64-15.9-23.49-12.05-43.74,3.72-19.57,18.15-30.63,24.19-34.47,12.37-7.88,23.76-8.09,39.52-8.38h0c19.86-.37,40.4-.74,55.99,13.99,8.21,7.76,13.69,18.37,15.83,30.68,2.18,12.53.61,24.11-4.67,34.41-8.04,15.68-21.88,22.27-27.79,25.08-10.73,5.11-21.09,6.56-29.7,6.56ZM573.97,373.5l.04,2.23c-15.03.27-25.89.47-37.2,7.68-5.55,3.53-18.81,13.68-22.2,31.54-3.51,18.49,5.47,33.07,11.14,40.11,12.33,15.32,29.34,18.51,40.6,20.62,7.74,1.45,25.85,4.85,45.02-4.28,5.97-2.84,18.38-8.76,25.74-23.09,4.83-9.41,6.26-20.05,4.25-31.61-1.98-11.35-6.99-21.1-14.5-28.2-14.26-13.48-33-13.14-52.85-12.77l-.04-2.23Z"/>
  <path class="cls-1" d="M772.41,485.48c-7.9,0-14.22-1.18-17.75-1.84-11.06-2.07-29.58-5.53-42.94-21.93-6.54-8.02-16.79-24.38-12.03-43.87,4.97-20.37,23.35-29.83,29.38-32.94,17.23-8.87,33.61-7.05,46.76-5.59h0c9.52,1.06,21.37,2.38,33.93,10.13,6.73,4.15,20.72,12.79,25.38,30.13,3,11.15,1.39,23.12-4.64,34.62-8.11,15.46-21.61,21.77-28.1,24.81-10.82,5.06-21.35,6.48-29.99,6.48ZM758.85,382.56c-8.73,0-18.16,1.36-27.75,6.3-6.18,3.18-22.6,11.64-27.09,30.03-4.3,17.61,5.15,32.61,11.16,39.99,12.33,15.13,29.84,18.41,40.3,20.36,7.01,1.31,25.62,4.79,45.04-4.29,6.05-2.83,18.63-8.71,26.04-22.84,5.5-10.49,6.98-21.34,4.28-31.39-4.2-15.63-16.7-23.35-23.41-27.49-11.71-7.23-22.53-8.43-32.08-9.5l.25-2.22-.25,2.22c-5.05-.56-10.6-1.18-16.48-1.18Z"/>
  <path class="cls-1" d="M590.07,470.68c-3.11,0-5.22-.73-6.3-2.18-1.55-2.09-.37-4.22,1.41-7.45,1.5-2.71,3.76-6.8,6.33-13.42,1.87-4.81,3.99-10.26,5.23-17.41.88-5.08,2.71-15.64-.83-27.53-1.69-5.65-3.85-9.15-5.42-11.71-1.63-2.65-3.04-4.93-1.37-7.2h0c1.19-1.61,3.53-2.35,6.96-2.21,9.02.37,25.59,7.16,34.2,21.1,11.15,18.03,3.18,37.77,2.84,38.6-7.78,18.79-28.08,27.76-39.83,29.2-1.17.14-2.25.22-3.22.22ZM587.66,465.94c1.17.39,4.5.57,9.97-.87,11.29-2.98,25.46-11.25,31.37-25.52.31-.74,7.45-18.44-2.51-34.55-6.8-11-19.49-17.44-28.4-18.77-2.93-.44-4.5-.17-5.13.08.25.56.84,1.52,1.33,2.32,1.61,2.62,4.05,6.57,5.9,12.78,3.85,12.89,1.82,24.58.95,29.57-1.32,7.59-3.52,13.27-5.47,18.27-2.68,6.89-5.03,11.14-6.58,13.96-.57,1.04-1.16,2.11-1.43,2.74ZM587.28,465.76"/>
  <path class="cls-1" d="M783.39,471.83c-2.94,0-3.97-.88-4.49-1.64-1.35-1.97.14-3.8,1.7-5.73,1.59-1.96,3.98-4.92,6.35-9.84,3.64-7.57,5.36-15.33,5.13-23.06-.32-10.77-4.44-19.08-6.9-24.05-2.09-4.21-3.94-6.92-5.29-8.9-1.74-2.56-3.12-4.57-1.72-6.71.88-1.34,2.63-2.05,5.21-2.11,8.03-.18,24.46,5.71,34.14,18.97,3.49,4.78,11.2,17.5,7.5,32.19-2.14,8.47-7.81,16.01-16.4,21.78-6.24,4.19-14.07,7.43-20.93,8.65-1.77.31-3.17.44-4.3.44ZM782.4,394.31c.3.5.76,1.17,1.17,1.78,1.34,1.97,3.37,4.94,5.6,9.42,2.63,5.3,7.02,14.16,7.37,25.9.25,8.45-1.62,16.9-5.57,25.12-2.59,5.4-5.29,8.73-6.9,10.72l-.09.11c3.24-.17,9.81-1.61,16.96-5.28,7.42-3.81,16.87-10.76,19.76-22.22,3.24-12.86-3.66-24.2-6.78-28.47-10.18-13.97-27.43-17.79-31.52-17.08ZM781.74,394.54h0Z"/>
  <path class="cls-1" d="M681.64,362.9c-46.4,0-67.97-1.63-77.51-2.34-36.04-2.71-72.5-7.89-108.35-15.38l.91-4.37c35.66,7.45,71.93,12.6,107.78,15.3,12.46.94,45.57,3.43,128.25,1.78,48.8-.98,98.59-3.08,147.99-6.24l.29,4.45c-49.47,3.17-99.32,5.27-148.19,6.25-19.74.39-36.67.55-51.16.55Z"/>
  <path class="cls-1" d="M541.38,432.85c-.22,0-.45-.01-.67-.04-5.84-.67-8.2-9.83-9.08-15.24-.96-5.86,0-10.61.98-13.55,1.28-3.87,3.22-9.72,8.04-10.43h0c5.42-.79,9.53,5.99,10.3,7.36,2.36,4.2,2.23,8.17,2.07,12.77-.15,4.42-.29,8.59-3.04,12.75-2.8,4.24-5.68,6.38-8.58,6.38ZM541.28,398.01h0c-2.1.31-3.63,4.93-4.45,7.42-.82,2.47-1.62,6.46-.81,11.43,1.06,6.46,3.24,11.3,5.19,11.53.47.05,2.21-.11,5.02-4.37,2.06-3.12,2.17-6.35,2.31-10.44.14-4.25.25-7.32-1.5-10.43-1.2-2.13-3.82-5.41-5.76-5.13Z"/>
  <path class="cls-1" d="M726.14,433.71c-.22,0-.45-.01-.67-.04-5.84-.67-8.2-9.83-9.08-15.23-.96-5.87,0-10.61.98-13.55,1.28-3.87,3.22-9.72,8.04-10.43h0c5.42-.79,9.53,5.99,10.3,7.36,2.36,4.2,2.23,8.17,2.07,12.76-.15,4.42-.29,8.59-3.04,12.75-2.8,4.24-5.68,6.38-8.58,6.38ZM726.05,398.87h0c-2.1.31-3.63,4.93-4.45,7.41-.82,2.47-1.62,6.46-.81,11.43,1.06,6.46,3.24,11.3,5.19,11.53.47.05,2.21-.11,5.02-4.37,2.06-3.12,2.17-6.35,2.31-10.44.15-4.25.25-7.32-1.5-10.43-1.29-2.29-3.93-5.4-5.76-5.13Z"/>
</svg>