<?xml version="1.0" encoding="UTF-8"?>
<svg id="memetchi" xmlns="http://www.w3.org/2000/svg" viewBox="0 0 1068.5 800">
  <path class="cls-1" d="M612.96,676.7l-4.82-.73c.97-6.39,2.66-12.5,5.04-18.14,1-2.39,2-4.37,2.95-6.3,1.75-3.51,3.4-6.83,4.99-12.25,1.57-5.33,1.69-7.97,1.62-9.67,0-.05-.3-5.9-3.58-11.56-6.26-10.82-41.6-18.84-56.68-22.27-1.57-.36-2.98-.68-4.19-.96-11.08-2.6-44.82-10.5-73.04-30.63-19.96-14.23-35.97-33.58-47.6-57.49-20.69-42.56-15.74-81.37-13.88-95.99,1.99-15.6,8.48-46.62,29.64-79.06,10.91-16.73,35.69-47.96,79-69.14,24.53-11.99,50.94-18.8,78.49-20.24l.25,4.87c-26.89,1.4-52.66,8.05-76.6,19.75-42.26,20.66-66.42,51.11-77.06,67.42-20.62,31.62-26.95,61.82-28.88,77.01-1.81,14.22-6.62,51.99,13.43,93.24,11.26,23.17,26.75,41.9,46.04,55.65,27.44,19.57,60.47,27.31,71.32,29.85,1.2.28,2.6.6,4.15.95,27.27,6.2,53.38,13.46,59.82,24.58,3.9,6.73,4.22,13.52,4.23,13.8.08,2.07-.04,5.22-1.81,11.24-1.72,5.83-3.54,9.5-5.31,13.05-.92,1.86-1.88,3.78-2.82,6.02-2.22,5.27-3.81,10.98-4.71,16.97Z"/>
  <path class="cls-1" d="M721.32,669.5c-1.53,0-3.3-.06-5.51-.14-3.94-.14-9.35-.34-17.48-.34h-.06c-6.28,0-10.65.12-14.16.22-5.65.16-9.74.27-17.16-.22-11.14-.73-16.73-1.1-21.31-3.13-6.05-2.68-17.06-10.38-22.83-31.83l4.71-1.26c5.24,19.5,14.84,26.31,20.09,28.64,3.79,1.68,9.09,2.03,19.66,2.72,7.19.47,10.97.37,16.7.21,3.54-.1,7.95-.22,14.29-.22h.06c8.22,0,13.67.2,17.65.34,7.11.26,8.81.32,12.69-1.16,9.98-3.8,16.22-10.45,19.57-14.02,6.31-6.73,11.06-14.64,14.1-23.51l4.61,1.58c-3.27,9.53-8.37,18.03-15.16,25.26-3.36,3.58-10.36,11.04-21.39,15.24-3.35,1.28-5.57,1.62-9.09,1.62Z"/>
  <path class="cls-1" d="M778.98,662.61c-1.57-3.93-3.48-7.74-5.67-11.34-1.25-2.06-2.28-3.53-3.19-4.83-1.31-1.87-2.45-3.49-3.73-6.08-1.17-2.35-3.91-7.85-4.15-13.66-.52-12.13,9.99-21.39,14.48-25.34,6.53-5.75,14.29-10.16,23.07-13.1l.2-.07c24.53-8.23,43.31-27.05,61.47-45.25,7.5-7.52,25.06-25.11,38.54-53.94,18.9-40.41,17.74-77.37,16.36-91.39-1.75-17.81-7.37-44.82-24.24-72.34-26-42.42-63.07-60.54-77.02-67.36-23.94-11.7-49.71-18.35-76.6-19.75l.25-4.87c27.55,1.44,53.95,8.25,78.49,20.24,14.3,6.99,52.3,25.57,79.04,69.19,17.35,28.3,23.13,56.09,24.93,74.41,1.41,14.42,2.61,52.43-16.8,93.93-13.84,29.6-31.82,47.62-39.5,55.31-18.57,18.61-37.76,37.84-63.38,46.43l-.2.07c-8.15,2.73-15.35,6.81-21.39,12.13-4.3,3.79-13.25,11.67-12.83,21.48.2,4.77,2.62,9.63,3.65,11.7,1.13,2.27,2.11,3.67,3.36,5.46.95,1.36,2.03,2.89,3.37,5.09,2.33,3.83,4.36,7.89,6.03,12.06l-4.53,1.81Z"/>
  <rect class="cls-1" x="671.02" y="666.54" width="4.88" height="48.86" transform="translate(-40.17 41.58) rotate(-3.43)"/>
  <rect class="cls-1" x="721.26" y="666.56" width="4.88" height="43.94" transform="translate(-29.86 32.81) rotate(-2.54)"/>
  <path class="cls-1" d="M647.77,255.6c-16.02,0-36.57-3.63-54.38-18.26-33.04-27.14-35.16-75.48-20.19-109.19,17.81-40.1,62.79-64.49,106.95-58,39.53,5.82,73.65,36.25,82.97,74.01,5.24,21.22,2.42,45.68-7.94,68.88-4.19,9.38-7.5,16.79-15.17,24.17-11.97,11.52-29.62,17.71-49.66,17.46-6.02-.08-12.07-.73-17.98-1.91-4.21,1.03-13.27,2.84-24.6,2.84ZM665.82,73.99c-37.36,0-73.04,22.13-88.15,56.14-14.23,32.03-12.33,77.85,18.83,103.44,22.31,18.33,49.32,18.3,64.74,16.28-7.91-2.56-15.33-6.08-21.8-10.42-4.21-2.82-14.07-9.44-21.25-22.29-8.95-16.03-8.8-29.9-7.09-38.72,3.26-16.83,15.14-31.29,33.47-40.72,7.97-4.1,26.64-13.7,45.08-4.91,16.98,8.09,22.07,26.66,23.74,32.77,1.96,7.17,5.25,19.16-1.18,31.07-8.19,15.17-20.82,16.76-24.5,16.88-10.07.33-19.96-5.26-24.66-13.96-4.56-8.42-6.15-23.46,2.88-28.64,6-3.44,15.19-1.31,22.36,5.19l-3.27,3.61c-5.53-5.01-12.53-6.93-16.66-4.57-6.04,3.46-4.64,15.39-1.02,22.08,3.84,7.1,11.96,11.68,20.21,11.4,11.94-.41,18.61-11.07,20.37-14.33,5.5-10.18,2.65-20.58.77-27.46-1.69-6.16-6.17-22.53-21.13-29.66-16.27-7.75-33.43,1.07-40.75,4.84-16.97,8.73-27.94,21.98-30.91,37.31-1.55,8.02-1.67,20.67,6.56,35.41,6.61,11.84,15.79,17.99,19.71,20.62,8.59,5.76,19.08,10.03,30.14,12.37.02,0,.05-.01.07-.02v.03c22.9,4.82,48.23,1.39,64.28-14.06,6.99-6.73,10.12-13.75,14.09-22.65,9.92-22.22,12.64-45.56,7.66-65.72-8.86-35.89-41.33-64.82-78.95-70.35-4.54-.67-9.1-.99-13.63-.99Z"/>
  <path class="cls-1" d="M685.5,555.43c-5.39,0-11.44-.25-18.48-.54-28.5-1.17-45.7-1.88-62.69-13.08-7.27-4.8-13.71-10.9-19.14-18.13l3.9-2.93c5.09,6.78,11.12,12.5,17.92,16.98,15.22,10.03,29.46,11.02,60.21,12.28,23.19.95,33.93,1.13,45.64-4.63,8.25-4.06,15.51-10.06,21.59-17.84l3.84,3c-6.53,8.37-14.36,14.84-23.28,19.22-9.12,4.49-17.78,5.66-29.52,5.66Z"/>
  <path class="cls-1" d="M536.84,483.33c-8.2,0-19.56-1.65-30.08-8.84-21.78-14.9-23.69-41.87-23.5-52.77.26-14.92,5.58-30.09,14.96-42.71,8.85-11.9,20.76-20.64,32.66-23.97h0c5.67-1.59,11.36-1.96,14.24-2.04,20.73-.58,33.05,6.38,39.73,12.32,16.32,14.51,15.73,36.95,15.45,47.73-.45,17.1-5.54,32.02-15.14,44.35-4.66,5.98-17.04,21.88-39.6,25.3-2.04.31-5.07.64-8.73.64ZM547.53,357.84c-.74,0-1.5.01-2.27.03-2.66.07-7.9.41-13.07,1.86h0c-20.77,5.81-43.52,31.2-44.06,62.07-.18,10.12,1.55,35.11,21.37,48.66,13.78,9.43,29.29,8.32,35.32,7.4,20.64-3.13,32.15-17.91,36.48-23.47,8.95-11.49,13.7-25.45,14.12-41.48.26-10.05.81-30.95-13.81-43.96-5.78-5.14-16.33-11.12-34.08-11.12Z"/>
  <rect class="cls-1" x="498.87" y="329.98" width="4.88" height="43.09" transform="translate(-29.77 46.83) rotate(-5.19)"/>
  <rect class="cls-1" x="528.62" y="323.24" width="4.88" height="34.15" transform="translate(-9.5 15.31) rotate(-1.64)"/>
  <rect class="cls-1" x="554.34" y="340.8" width="30.49" height="4.88" transform="translate(156.3 864.23) rotate(-82.65)"/>
  <rect class="cls-1" x="507.96" y="488.08" width="23.75" height="4.88" transform="translate(-114.23 820.37) rotate(-70.82)"/>
  <rect class="cls-1" x="542.76" y="480.28" width="4.88" height="18.53"/>
  <rect class="cls-1" x="561.78" y="474.87" width="4.88" height="20.58" transform="translate(-170.2 365.39) rotate(-31.43)"/>
  <path class="cls-1" d="M538.37,470.07l-1.06-.03c-2.39-.09-2.43-1.86-2.52-5.38-.08-3.12-.21-8.35-.79-14.37-.73-7.51-1.49-9.34-1.78-10.03-2.33-5.6-6.55-9.06-8.87-10.62-3.38-2.28-6.53-3.18-8.82-3.83-2.39-.68-4.87-1.39-4.93-3.98-.07-2.78,2.63-3.6,5.75-4.55,2.71-.82,6.41-1.95,9.94-4.35,5.47-3.72,7.98-8.79,10.89-14.67,4.37-8.83,6.03-17.03,7.02-21.93.88-4.33,1.39-6.96,4.14-6.73,2.77.22,3.04,2.46,4.18,11.89.28,2.32.4,3.85.51,5.2.11,1.42.21,2.65.46,4.52.2,1.46.72,5.32,1.88,9.42,1.61,5.7,2.89,10.21,6.22,13.58,2.98,3.02,6.66,4.13,9.09,4.87,2.04.61,4.57,1.38,4.28,3.95-.3,2.64-2.97,2.82-5.81,3.01-3.07.21-7.7.52-12.08,2.78-6.67,3.45-9.88,10.01-11.61,13.54-4.95,10.1-4.69,20.52-4.6,23.94.04,1.46.06,2.26-.74,3.05l-.75.74ZM517.7,421.65c2.31.72,5.26,1.83,8.38,3.94,2.76,1.87,7.82,6.01,10.64,12.79.47,1.12.99,2.75,1.5,6.18.53-1.45,1.15-2.91,1.86-4.37,1.97-4.03,5.65-11.53,13.75-15.72,3.08-1.59,6.22-2.38,8.95-2.81-1.87-.92-3.84-2.2-5.66-4.05-4.21-4.27-5.71-9.56-7.44-15.68-1.25-4.43-1.81-8.54-2.02-10.09-.27-2-.38-3.35-.49-4.79-.09-1.2-.19-2.43-.39-4.19-1.16,4.86-2.98,11.01-6.22,17.54-3.08,6.22-5.99,12.1-12.52,16.54-3.72,2.53-7.54,3.84-10.34,4.7Z"/>
  <path class="cls-1" d="M797.26,500.4c-8.2,0-19.56-1.65-30.08-8.84-21.78-14.9-23.69-41.87-23.5-52.77.26-14.92,5.58-30.09,14.96-42.71,8.85-11.9,20.76-20.64,32.66-23.97h0c6.33-1.77,12.28-1.97,14.23-2.04,6.94-.23,28.06-.95,39.98,13.05,4.04,4.74,5.46,9.99,8.3,20.45,1.57,5.78,4.49,16.55,3.98,29.99-.33,8.8-.95,25.18-12.16,40.83-10.03,14.01-24.12,23.02-39.66,25.38-2.04.31-5.07.64-8.73.64ZM792.63,376.8c-20.77,5.81-43.52,31.2-44.06,62.07-.18,10.11,1.55,35.1,21.37,48.66,13.78,9.43,29.3,8.32,35.32,7.4,14.23-2.15,27.16-10.46,36.42-23.39,10.36-14.46,10.94-29.89,11.25-38.17.48-12.7-2.32-23-3.82-28.53-2.65-9.76-3.98-14.66-7.31-18.57-10.4-12.2-29.74-11.55-36.1-11.34-1.81.06-7.31.25-13.08,1.86h0Z"/>
  <rect class="cls-1" x="763.19" y="350.07" width="44.88" height="4.88" transform="translate(416.17 1130.31) rotate(-88.76)"/>
  <path class="cls-1" d="M845.8,384.9l-4.26-2.38c2.89-5.19,5.82-10.39,8.79-15.62,2.6-4.59,5.21-9.14,7.81-13.67l4.23,2.43c-2.6,4.52-5.2,9.06-7.8,13.64-2.96,5.22-5.88,10.41-8.77,15.59Z"/>
  <rect class="cls-1" x="768.39" y="505.15" width="23.75" height="4.88" transform="translate(44.52 1077.81) rotate(-70.82)"/>
  <rect class="cls-1" x="803.19" y="497.35" width="4.88" height="18.53"/>
  <rect class="cls-1" x="822.21" y="491.94" width="4.88" height="20.58" transform="translate(-140.9 503.7) rotate(-31.43)"/>
  <path class="cls-1" d="M794.53,485.86l-2.41-.59-.48-1.18c-.5-1.27.3-7.13,2.76-14.11.03-.75.04-1.52.02-2.31-.05-1.84-.36-5.59-1.83-10.03-1.04-3.15-3.49-10.52-9.89-15.41-3.76-2.87-7.64-3.95-10.47-4.74-2.59-.72-5.27-1.47-5.11-4.17.15-2.56,2.71-3.12,5.18-3.67,2.33-.52,5.53-1.22,8.66-3.14,2.93-1.81,5.93-5.44,8.9-10.81,5.21-9.42,7.18-18.63,8.23-23.59.83-3.89,1.33-6.24,3.94-5.94h0c2.32.27,2.48,2.32,2.71,5.41.09,1.2.21,2.68.4,4.56.37,3.46.69,5.14,1.03,6.92.29,1.51.59,3.08.91,5.72.55,4.57.5,7.05.47,9.04-.04,2-.06,3.45.49,6.41.84,4.52,1.45,7.79,3.51,10.76,3.31,4.79,8.75,6.79,12.35,8.11,2.65.98,5.16,1.9,4.61,4.51-.52,2.47-3.02,2.44-5.42,2.4-2.92-.04-7.33-.1-11.38,2.16-2.73,1.52-5.28,4.91-6.94,7.48-2.47,3.82-4.25,7.77-5.53,11.31-.42,6.93-2.52,13.14-3.75,14.13l-.94.76ZM776.45,433.66c2.71.88,5.97,2.23,9.19,4.69,7.6,5.8,10.48,14.48,11.56,17.75.54,1.64.95,3.2,1.25,4.63.68-1.26,1.41-2.5,2.19-3.72,2.85-4.42,5.77-7.48,8.66-9.1,2.54-1.42,5.13-2.12,7.49-2.47-3.21-1.59-6.69-3.94-9.28-7.67-2.66-3.83-3.38-7.72-4.29-12.65-.64-3.45-.61-5.28-.57-7.4.04-1.93.08-4.12-.43-8.36-.3-2.47-.57-3.89-.86-5.38-.16-.83-.32-1.68-.49-2.7-1.37,4.87-3.44,10.76-6.78,16.78-3.38,6.11-6.95,10.35-10.61,12.6-2.47,1.52-4.93,2.41-7.04,3Z"/>
  <rect class="cls-1" x="804.06" y="352.5" width="38.24" height="4.88" transform="translate(386.17 1137.65) rotate(-84.15)"/>
</svg>