<?xml version="1.0" encoding="UTF-8"?>
<svg id="sebiretchi" xmlns="http://www.w3.org/2000/svg" viewBox="0 0 1068.5 800">
  <path class="cls-1" d="M525.7,431.98c-28.38-3.46-55.23-11.27-79.79-23.23-24.4-11.88-38.96-24.14-43.26-36.42-2.53-7.22-3.41-15.77-2.42-23.45,1.21-9.36,5.07-17.06,11.15-22.28,9.77-8.37,22.1-7.81,26.74-7.6,27.51,1.26,44.41,26.62,47.52,31.69l-4.26,2.61c-2.88-4.69-18.5-28.17-43.48-29.31-4.1-.19-15-.68-23.26,6.4-10.8,9.26-11.83,27.27-7.27,40.27,3.85,11,17.56,22.29,40.74,33.58,24.06,11.72,50.38,19.38,78.21,22.77l-.6,4.96Z"/>
  <path class="cls-1" d="M473.23,482.07c-16.23,0-31.97-2.4-46.99-7.18-20.33-6.47-45.63-14.52-51.65-35.7-2.91-10.23-2.45-25.15,7.54-36.35,11.14-12.49,30.36-15.96,47.83-8.64l-1.93,4.61c-15.51-6.5-32.45-3.54-42.17,7.36-8.65,9.7-8.89,23.11-6.46,31.65,5.28,18.6,28.17,25.88,48.35,32.3,20.17,6.42,41.69,8.4,63.96,5.9l.56,4.97c-6.41.72-12.77,1.08-19.04,1.08Z"/>
  <path class="cls-1" d="M707.21,671.28c-19.74,0-37.46-.55-52.34-1.28-49.12-2.42-68.68-6.54-87.22-18.39-29.88-19.1-43.76-47.37-53.9-68-15.8-32.18-23.96-67.54-24.26-105.08l5-.04c.29,36.79,8.27,71.41,23.74,102.92,9.87,20.11,23.4,47.65,52.1,66,15.75,10.07,31.73,15,84.78,17.61,41.2,2.03,104.41,2.64,171.56-5.98,14.1-1.81,41.41-5.6,65.85-10.67,45.74-9.49,47.98-16.51,47.97-17.82,0-.86-2.93-2.79-7.77-5.99-5.58-3.69-14.02-9.27-27.21-19.03-10.38-7.68-16.96-12.99-20.81-22.03-4.55-10.66-2.95-20.56-2.18-25.32.08-.52,7.53-46.77,12.99-99.92,1.34-13.08,1.92-35.38-2.98-67.37-3.87-25.28-9.73-63.46-36.61-104-7.62-11.49-30.8-46.44-76.08-70.17-16.22-8.5-49.84-22.72-93.17-22.72-.22,0-.44,0-.66,0-43.18.15-74.27,14.22-90.98,21.78-18.74,8.48-42.07,19.04-64.21,42.44-29.81,31.5-40.57,68.85-44.34,94.64l-4.95-.72c3.88-26.5,14.95-64.91,45.66-97.36,22.82-24.11,47.65-35.35,65.78-43.56,17.05-7.72,48.77-22.07,93.03-22.22.23,0,.45,0,.68,0,44.4,0,78.86,14.57,95.49,23.29,46.41,24.32,70.13,60.08,77.92,71.83,27.49,41.45,33.69,81.86,37.39,106,4.98,32.52,4.39,55.27,3.02,68.64-5.48,53.3-12.94,99.68-13.02,100.14-.7,4.35-2.15,13.29,1.83,22.62,3.24,7.61,8.59,12.13,19.19,19.97,13.09,9.68,21.46,15.21,27,18.88,7.66,5.07,9.97,6.59,10.01,10.1.06,5.57-5.78,13.19-51.95,22.77-24.6,5.1-52.05,8.92-66.23,10.74-43.26,5.55-84.89,7.3-120.11,7.3Z"/>
  <path class="cls-1" d="M642.75,713.73c-3.08,0-4.83-.37-6.43-.83-4.09-1.17-17.68-5.98-20.75-18.82-2.63-11.01,3.62-23.25,15.21-29.76l2.45,4.36c-9.64,5.42-14.91,15.39-12.79,24.24,2.5,10.47,14.81,14.48,17.25,15.18,2.68.77,6.31,1.26,20.92-1.06,15.91-2.53,23.89-3.8,34.5-7.87,2.39-.92,4.6-1.73,6.62-2.48,9.41-3.48,14.6-5.39,17.15-9.5,3.82-6.17,3.04-13.78,1.7-19.07l4.85-1.22c2.25,8.94,1.46,16.87-2.3,22.93-3.45,5.58-9.56,7.83-19.67,11.56-2.01.74-4.19,1.55-6.56,2.46-11.1,4.25-19.25,5.55-35.49,8.13-8.22,1.31-13.25,1.77-16.66,1.77Z"/>
  <path class="cls-1" d="M572.46,695.33c-2.5,0-4.96-.1-7.68-.33-16.04-1.37-20.17-5.38-21.53-6.7-1.22-1.18-7.26-7.54-6.76-16.93.4-7.44,4.75-12.31,7.63-15.53,6.51-7.29,14.63-10.42,20.29-11.77l1.16,4.87c-4.96,1.18-12.06,3.91-17.71,10.23-2.7,3.02-6.06,6.79-6.37,12.47-.39,7.38,4.67,12.51,5.24,13.07,3.48,3.38,11.97,4.75,18.47,5.3,8.07.69,13.64.21,25.85-.85l1.72-.15c7.82-.67,15.9-1.35,24.01-2l.4,4.98c-8.11.65-16.18,1.32-23.98,2l-1.72.15c-8.25.71-13.71,1.19-19.03,1.19Z"/>
  <path class="cls-1" d="M555.41,348.07c-4.82,0-8.66-1.46-10.46-2.3-7.34-3.42-12.46-10.43-14.39-19.76-.61-2.96-1.89-9.1,1.19-15.58,4.2-8.83,13.1-11.59,16.73-12.37,9.35-2,16.79,2.04,18.85,3.32,8.41,5.26,13.19,14.83,12.16,24.39-1.03,9.63-7.74,18.12-16.69,21.1h0c-2.61.87-5.1,1.2-7.38,1.2ZM553.67,302.51c-1.31,0-2.7.13-4.15.44-2.27.49-9.93,2.62-13.27,9.63-2.36,4.96-1.35,9.81-.81,12.42,1.61,7.74,5.73,13.51,11.61,16.24,1.65.77,7.55,3.1,14.15.9,7.13-2.38,12.48-9.17,13.31-16.9,1-9.32-4.68-16.39-9.84-19.61-1.34-.83-5.5-3.11-11-3.11Z"/>
  <path class="cls-1" d="M679.93,411.41c-4.49,0-8.26-1.28-10.52-2.28-3.39-1.5-11.52-5.96-13.83-15.01-2.19-8.57,2.33-15.68,6.31-21.96,3.77-5.94,7.67-12.08,15.49-14.08,10.36-2.65,18.85,4.2,19.21,4.49,10.59,8.7,7.92,23.86,7.27,26.81-.84,3.84-4.51,16.69-16.63,20.83-2.55.87-5.01,1.2-7.3,1.2ZM682.23,362.47c-1.16,0-2.37.13-3.61.45-5.9,1.51-8.96,6.33-12.51,11.92-3.78,5.95-7.34,11.56-5.69,18.04,1.77,6.93,8.28,10.47,11,11.67,2.75,1.21,8.24,2.95,14.18.92h0c9.65-3.29,12.67-13.97,13.37-17.17.54-2.45,2.78-15.03-5.56-21.88-.06-.05-4.91-3.96-11.19-3.96Z"/>
  <path class="cls-1" d="M773.07,589.03c-8.56,0-19.71-6.52-25.36-19.53-1.52-3.51-2.29-6.83-.2-34.19.44-5.8.79-9.82,1.08-13.04.42-4.77.69-7.92.92-12.88.39-8.62.39-17.29,0-25.77l4.99-.23c.4,8.64.4,17.46,0,26.23-.23,5.07-.51,8.26-.93,13.09-.28,3.21-.63,7.21-1.07,12.99-1.95,25.55-1.34,29.18-.2,31.81,3.68,8.46,12.5,17.1,21.54,16.5,10.26-.7,16.56-13.02,19.94-19.64,8.25-16.13,5.88-32.59,4.75-40.51-1.15-8.01-3.44-15.86-6.8-23.33l4.56-2.06c3.56,7.89,5.98,16.19,7.2,24.67,1.21,8.42,3.72,25.95-5.25,43.49-3.83,7.5-10.97,21.47-24.06,22.36-.36.02-.73.04-1.1.04Z"/>
  <path class="cls-1" d="M934.94,624.82l-1.87-4.64c16.99-6.86,27.95-22.44,25.48-36.24-1.46-8.16-7.91-17.88-16.17-20.02-3.75-.97-7.36-.31-10.25.23-2.93.54-5.97,1.1-7.33-1.48-1.5-2.85,1.04-5.29,4.56-8.67,1.97-1.89,4.42-4.24,6.7-7.07,1.62-2.01,15.66-20.04,9.64-34.47-2.13-5.09-7.17-11.19-13.23-12.52-1.51-.33-2.76-.32-3.88-.31-1.59.01-3.77.03-4.81-1.98-1.64-3.18,1.63-5.83,7.07-10.23,4.57-3.7,10.83-8.76,16.2-15.48,4.37-5.47,15.97-20.01,12.51-35.91-1.85-8.49-8.11-18.41-16.07-20.08-2.52-.53-4.85-.12-6.73.21-2.09.37-4.69.82-5.95-1.44-1.65-2.98,1.37-5.38,5.96-9.03,5.2-4.13,13.05-10.38,18.04-19.4,9.36-16.93,4.02-35.3,3.79-36.07-4.4-14.67-16.19-27.26-29.34-31.33-2.75-.85-5.57-1.37-8.06-1.82-5.14-.94-9.19-1.69-9.68-5.22-.41-2.98,2.29-4.48,4.9-5.93,2.65-1.47,5.94-3.31,8.56-6.89,3.63-4.96,4.82-11.74,3.55-20.15-1.32-8.71-5.84-14.31-9.47-18.81-7.52-9.32-25.2-25.74-38.23-21.21-4.22,1.47-7.25,4.89-9.26,7.15-1.72,1.94-3.66,4.14-5.98,2.54-2.32-1.6-1.12-4.24.69-8.23,1.6-3.52,3.8-8.35,5.3-14.43,1.66-6.72,3.93-15.93.11-25.47-4.49-11.21-14.66-16.33-17.67-17.63-8.09-3.5-14.83-2.35-29.59.17-16.13,2.76-25.87,4.42-32.52,12.16-2.38,2.77-4.07,5.88-5.27,8.79-.93,4.23-2.08,7.59-2.75,9.55-.03.08-.05.15-.08.23-.31,1.52-.49,2.31-1.46,2.91l-.91.57-2.12-.54-.53-.97c-.51-.96-.36-1.66.18-3.27.41-2.03,1.18-5.77,2.87-9.97,1.5-7.01,2.29-16.34-1.15-25.01-3.45-8.68-9.92-13.65-14.2-16.94-16.64-12.78-36.05-11.84-43.36-11.49-8.21.4-19.46.95-30.72,8.57-8.52,5.78-14.77,13.33-18.07,21.83-1.27,3.26-2.07,6.59-2.65,9.02-.85,3.55-1.42,5.88-4.01,5.55-2.6-.34-2.45-2.97-2.31-5.29.23-3.84.66-11-2.64-18.15-2.14-4.65-5.26-7.93-7.54-10.32-3.9-4.1-8.05-7.3-12.33-9.5-8.56-4.41-19.31-5.4-30.28-2.79-15.44,3.67-24.38,14.15-28.68,19.19-4.91,5.76-14.05,16.47-14.4,32.43-.17,7.72,1.8,15.59,5.7,22.75l-4.39,2.39c-4.32-7.93-6.5-16.66-6.3-25.25.4-17.74,10.66-29.78,15.6-35.57,4.64-5.44,14.29-16.76,31.32-20.81,12.12-2.88,24.1-1.74,33.72,3.21,4.78,2.46,9.38,5.99,13.67,10.5,2.52,2.65,5.97,6.27,8.46,11.68,1.34,2.92,2.15,5.83,2.63,8.56,3.72-9.22,10.52-17.37,19.7-23.58,12.42-8.41,24.97-9.02,33.28-9.43,7.81-.38,28.55-1.39,46.64,12.51,4.43,3.4,11.84,9.1,15.8,19.06,2.17,5.45,2.87,11.07,2.78,16.29,7.82-9.11,18.82-10.99,35.47-13.83,14.8-2.53,22.96-3.92,32.41.17,3.46,1.5,15.13,7.38,20.33,20.36,4.42,11.04,1.82,21.56.11,28.53-1,4.06-2.31,7.63-3.54,10.59,1.76-1.4,3.85-2.71,6.29-3.55,7.25-2.52,15.77-.56,25.34,5.8,9.41,6.25,16.48,14.59,18.42,16.99,3.8,4.7,9,11.14,10.53,21.2,1.48,9.76-.01,17.78-4.45,23.85-3.26,4.46-7.42,6.77-10.17,8.3-.47.26-1.01.56-1.49.85,1.24.38,3.19.73,4.74,1.02,2.62.48,5.6,1.03,8.63,1.97,14.68,4.54,27.8,18.47,32.66,34.67.64,2.15,5.98,21.5-4.21,39.93-5.47,9.9-13.8,16.51-19.31,20.89-.5.4-1.04.83-1.57,1.25,1.78-.21,3.91-.29,6.2.2,10.13,2.13,17.69,13.64,19.93,23.91,3.97,18.22-8.71,34.11-13.49,40.09-5.71,7.15-12.21,12.41-16.96,16.25-1.39,1.12-2.88,2.33-4,3.33,1.01.03,2.2.13,3.54.42,7.84,1.73,14.07,9.02,16.77,15.48,3.06,7.32,2.41,15.96-1.91,25.67-3.13,7.04-7.26,12.39-8.45,13.86-2.48,3.08-5.06,5.55-7.13,7.54-.55.52-1.15,1.1-1.69,1.64.03,0,.06-.01.09-.02,3.02-.56,7.59-1.41,12.42-.15,10.58,2.74,18.12,14.4,19.83,23.98,2.93,16.34-9.07,33.9-28.52,41.76Z"/>
</svg>