<?xml version="1.0" encoding="UTF-8"?>
<svg id="violetchi" xmlns="http://www.w3.org/2000/svg" viewBox="0 0 1068.5 800">
  <path class="cls-1" d="M731.5,541.06c-2.79,0-5.6-.01-9.08-.03-8.4-.04-19.91-.09-43.41-.03h-2.9c-6.46.03-10.73.04-17.13,0-16.92-.11-28.58-.47-37.94-.76-2.87-.09-5.54-.17-8.1-.24-22.01-.58-36.78-.05-47.56.33-17.94.64-26.13.93-40.27-4.5-7.31-2.81-17.32-6.66-27.31-16.01-22.2-20.78-24.71-50.8-25.78-63.62-1.17-13.95.3-25.12,2.51-42.03,1.53-11.69,3.74-23.39,6.55-34.78l4.85,1.2c-2.77,11.21-4.94,22.72-6.45,34.23-2.17,16.59-3.61,27.55-2.49,40.97,1.02,12.25,3.42,40.92,24.22,60.38,9.28,8.69,18.76,12.33,25.69,14.99,13.18,5.06,20.53,4.8,38.29,4.17,10.85-.39,25.71-.92,47.88-.33,2.57.07,5.25.15,8.13.24,9.34.29,20.96.65,37.82.76,6.37.04,10.63.03,17.08,0h2.9c23.52-.08,35.04-.02,43.45.02,7.15.03,11.47.05,18.53-.03,34.75-.39,52.18-.59,63.52-2.95,14.85-3.08,37.29-7.74,57.88-25.45,7.21-6.2,19.26-16.57,25.27-33.92,3.59-10.39,3.68-21.35,3.86-43.2.09-11.47-.48-20.15-.99-27.81-1.04-15.55-1.56-23.35-3.93-32.55-4.13-16.04-8.03-22.61-10.6-26.16-1.98-2.74-4.24-5.31-6.7-7.66l3.45-3.62c2.68,2.55,5.14,5.36,7.3,8.34,2.81,3.88,7.05,10.98,11.4,27.84,2.49,9.65,3.02,17.61,4.07,33.46.52,7.75,1.1,16.53,1.01,28.19-.18,22.39-.28,33.63-4.14,44.8-6.44,18.63-19.14,29.55-26.73,36.08-21.57,18.55-44.77,23.37-60.12,26.55-11.82,2.45-29.4,2.65-64.43,3.05-3.68.04-6.61.06-9.57.06Z"/>
  <path class="cls-1" d="M561.08,269l-.17-5c30.53-1.04,61.51-1.71,92.06-2,9.98-.1,19.21-.21,27.91-.32,38.53-.49,66.36-.84,102.26,1.33,5,.3,10.06.64,15.03,1l-.37,4.99c-4.95-.36-9.99-.7-14.97-1-35.72-2.15-63.48-1.8-101.9-1.32-8.71.11-17.95.23-27.93.32-30.51.29-61.45.96-91.94,2Z"/>
  <path class="cls-1" d="M489.89,383.74c-2.07,0-4.25-.25-6.5-.82-11.64-2.95-17.19-12.46-18.62-15.3-5.44-10.86-2.62-23.1-1.15-27.86.62-2.01,1.34-3.8,1.98-5.39.23-.56.49-1.21.72-1.81-.09.04-.18.09-.27.13-1.37.64-3.07,1.43-5.22,2.17-6.75,2.32-12.71,2.26-14.96,2.13-.56-.03-13.78-.9-19.85-9-3.78-5.05-4.67-12.87-2.42-21.46,3.11-11.89,11.12-22.22,20.41-26.32,9.21-4.07,19.41-2.3,26.16-1.14.47.08.97.17,1.47.25-1.97-1.66-4.43-3.98-6.71-7.46-4.56-6.96-5.46-13.31-5.41-17.4.02-1.74.52-17.14,11.44-22.24,5.73-2.67,16.18-2.33,26.75,7.43,6.48,5.98,8.6,12.84,10.15,17.85.81,2.63,1.65,5.34,2.62,5.53,1.96.38,5.41-5.71,7.93-10.15,4.6-8.1,10.33-18.19,19.41-18.88,11.31-.86,24.25,13.39,25.68,28.25.27,2.77.66,12.44-5.48,20.73-3.52,4.75-8.03,7.42-11.02,9.19-.12.07-.24.14-.36.21.07,0,.13,0,.19.01,3.64.22,9.14.56,13.71,4.12,7.69,5.98,8.96,17.96,6.9,26.56-.71,2.94-4.95,17.78-18.89,20.86-9.54,2.1-18.63-2.39-23.41-7.78-.84-.95-1.55-1.92-2.16-2.88-.07,5.81-.51,13.48-2.54,21.81-1.85,7.62-3.32,13.63-8.63,19.14-.43.45-9.33,9.51-21.91,9.51ZM468.33,326.75c.81,0,1.58.24,2.3.86,2.29,1.97,1.04,5.06-.4,8.64-.6,1.49-1.28,3.18-1.84,4.99-1.29,4.18-3.78,14.9.85,24.14.84,1.68,5.55,10.2,15.38,12.7,13.14,3.33,23.48-7.2,23.58-7.31,4.17-4.33,5.46-8.99,7.37-16.86,2.55-10.48,2.45-20,2.39-25.69-.06-5.2-.08-7.81,2.69-8.2,2.53-.35,3.26,2.14,3.79,3.96.68,2.3,1.7,5.78,4.42,8.85,3.81,4.29,11.03,7.88,18.59,6.22,11.04-2.43,14.52-14.71,15.11-17.14,1.76-7.31.57-17.03-5.1-21.44-3.36-2.61-7.57-2.87-10.95-3.08-3.09-.19-6.29-.39-6.96-3.35h0c-.65-2.9,2.04-4.49,4.88-6.17,2.8-1.65,6.63-3.92,9.55-7.86,5.21-7.03,4.68-15.62,4.52-17.27-1.24-12.94-12.5-24.34-20.32-23.75-6.43.49-11.22,8.93-15.45,16.37-4.15,7.31-7.74,13.63-13.21,12.6-3.92-.74-5.1-4.55-6.46-8.96-1.46-4.72-3.28-10.59-8.77-15.66-4.4-4.07-13.84-10.03-21.25-6.57-8.29,3.87-8.55,17.2-8.56,17.76-.04,3.4.72,8.69,4.59,14.6,2.44,3.73,5.13,5.9,7.1,7.48,1.97,1.58,4,3.22,3.18,5.68-1.09,3.27-4.86,2.62-10.08,1.71-6.16-1.06-15.46-2.67-23.28.78-7.83,3.46-14.9,12.71-17.59,23.02-1.86,7.11-1.28,13.37,1.58,17.2,4.69,6.26,16.03,7,16.15,7,1.96.12,7.13.16,13.04-1.87,1.9-.65,3.47-1.39,4.73-1.97,1.54-.72,3.03-1.42,4.41-1.42Z"/>
  <path class="cls-1" d="M842.77,368.1c-2.07,0-4.24-.25-6.49-.82-11.64-2.95-17.2-12.46-18.62-15.3-5.44-10.86-2.62-23.1-1.15-27.86.62-2.01,1.34-3.8,1.98-5.39.23-.56.49-1.21.72-1.81-.09.04-.18.09-.27.13-1.37.64-3.07,1.43-5.22,2.17-6.75,2.32-12.71,2.27-14.96,2.13-.56-.03-13.79-.91-19.85-9-3.78-5.05-4.67-12.87-2.42-21.46,3.11-11.89,11.12-22.22,20.41-26.32,9.21-4.07,19.41-2.3,26.16-1.14.47.08.97.17,1.47.25-1.97-1.66-4.43-3.98-6.71-7.46-4.56-6.96-5.46-13.31-5.41-17.4.02-1.74.52-17.14,11.44-22.24,5.73-2.67,16.18-2.33,26.75,7.43,6.48,5.98,8.6,12.84,10.15,17.85.81,2.63,1.65,5.34,2.62,5.53,1.98.37,5.41-5.71,7.93-10.15,4.6-8.1,10.33-18.19,19.41-18.88,11.31-.88,24.25,13.39,25.68,28.25.27,2.77.66,12.44-5.48,20.73-3.52,4.75-8.03,7.42-11.02,9.19-.12.07-.24.14-.36.21.07,0,.13,0,.2.01,3.64.22,9.14.56,13.71,4.12,7.69,5.98,8.96,17.96,6.9,26.56-.71,2.94-4.95,17.78-18.89,20.86-9.53,2.1-18.63-2.39-23.41-7.78-.84-.95-1.55-1.92-2.16-2.88-.07,5.81-.51,13.48-2.54,21.82-1.85,7.62-3.32,13.63-8.63,19.14-.43.45-9.34,9.5-21.92,9.51ZM821.22,311.1c.81,0,1.58.24,2.3.86,2.29,1.97,1.04,5.06-.4,8.64-.6,1.49-1.28,3.18-1.84,4.99-1.29,4.18-3.79,14.9.85,24.14.84,1.68,5.55,10.2,15.38,12.7,13.13,3.33,23.17-6.88,23.59-7.31,4.17-4.33,5.46-8.99,7.37-16.85,2.55-10.48,2.45-20,2.39-25.69-.05-5.2-.08-7.81,2.69-8.2,2.53-.35,3.26,2.14,3.79,3.96.68,2.3,1.7,5.78,4.42,8.85,3.81,4.29,11.03,7.88,18.59,6.22,11.04-2.43,14.52-14.71,15.11-17.14,1.76-7.31.57-17.03-5.1-21.44-3.36-2.61-7.57-2.87-10.95-3.08-3.09-.19-6.29-.39-6.96-3.35h0c-.65-2.9,2.04-4.49,4.88-6.17,2.8-1.65,6.63-3.92,9.55-7.86,5.21-7.03,4.68-15.62,4.52-17.27-1.24-12.94-12.49-24.34-20.32-23.75-6.43.49-11.22,8.93-15.45,16.37-4.15,7.31-7.73,13.64-13.21,12.6-3.92-.74-5.1-4.55-6.46-8.96-1.46-4.72-3.28-10.59-8.77-15.66-4.4-4.07-13.83-10.03-21.25-6.57-8.29,3.87-8.55,17.2-8.56,17.76-.04,3.4.72,8.69,4.59,14.6,2.44,3.73,5.13,5.9,7.1,7.48,1.97,1.58,4,3.22,3.18,5.68-1.09,3.27-4.86,2.62-10.08,1.71-6.16-1.07-15.46-2.67-23.28.78-7.83,3.46-14.9,12.71-17.59,23.02-1.86,7.11-1.28,13.37,1.58,17.2,4.68,6.25,16.03,7,16.15,7,1.95.12,7.13.16,13.04-1.87,1.9-.65,3.47-1.39,4.73-1.97,1.54-.72,3.04-1.42,4.41-1.42Z"/>
  <path class="cls-1" d="M639.77,686.13c-.7,0-1.41-.05-2.13-.15-11.98-1.74-17.27-17.5-19.01-22.68-1.94-5.77-2.98-11.67-1.13-44.93.09-1.68.19-3.3.28-4.84.23-3.95.46-7.97.57-11.18l-1.1,2.26c-6.04,12.41-7.25,14.35-9.92,16.03-4.52,2.82-12.05,3.54-16.85-.14-5.86-4.5-5.62-14.49,1.08-44.53,2.9-13.02,6.28-26.2,10.04-39.15l4.8,1.39c-3.73,12.86-7.08,25.93-9.96,38.85-6.61,29.66-6.02,37.09-2.92,39.47,2.89,2.22,8.2,1.71,11.15-.14,1.46-.91,2.56-2.65,8.08-13.97l1.17-2.41c3.46-7.13,4.08-8.41,6.54-7.95,3.53.67,3.3,4.71,2.31,21.76-.09,1.54-.18,3.16-.28,4.83-1.8,32.29-.82,38.02.87,43.07,4.02,11.96,9.06,18.46,14.99,19.32,6.51.95,12.62-5.04,12.88-5.3,2.62-2.6,3.81-5.89,6.41-13.08,1.24-3.42,2.2-6.76,3.95-12.84.46-1.6.84-2.94,1.15-4.07,1.49-5.3,1.84-6.56,3.59-8.11,2.14-1.9,4.45-2.45,16.62-2.63,3.68-.05,6.17-.04,9.92-.02l4.12.02c7.66.03,11.51.04,13.95,0,2.56-.04,5.15-.03,7.66,0,2.12.02,4.24.03,6.36,0h.82c5.04-.07,6.93-.09,8.86,1.63,2.73,2.42,2.46,5.81,2.06,10.95-.07.93-.15,1.96-.23,3.08-.72,11.11-.94,16.15,1.49,19.32,2.33,3.04,6.09,3.79,7.5,4.07,4.47.88,9.52-.46,12.86-3.42,1.86-1.65,3.49-4.5,6.18-24.46,1.19-8.85,1.87-15.64,1.99-16.91.82-8.52,1.6-16.57,1.99-26.85.18-4.83.23-8.89.27-12.16.11-9.38.16-13.27,3.6-14.17,2.49-.65,3.68.87,7.63,5.88,1.04,1.32,2.33,2.96,3.95,4.97,6.14,7.64,8.15,9.67,10.6,11.6,3.77,2.98,6.23,4.78,9.19,4.48,3.35-.35,5.62-3.14,6.24-3.99,3.22-4.42,2.19-10.74.6-16.9-3.44-13.32-9.42-27.93-17.78-43.44l4.4-2.37c8.55,15.86,14.68,30.85,18.22,44.56,1.9,7.35,3.04,15-1.4,21.1-.92,1.27-4.36,5.45-9.76,6.01-5.13.54-8.86-2.41-12.81-5.52-2.76-2.18-4.96-4.38-11.4-12.4-1.63-2.03-2.93-3.68-3.98-5.01-.78-.99-1.49-1.89-2.07-2.61-.16,1.91-.19,4.83-.23,7.85-.04,3.29-.09,7.39-.27,12.29-.39,10.43-1.18,18.55-2.01,27.15-.17,1.81-.84,8.38-2.01,17.09-2.84,21.09-4.65,24.72-7.82,27.54-4.54,4.02-11.1,5.78-17.15,4.58-1.74-.34-7.02-1.39-10.5-5.93-3.67-4.79-3.26-11.15-2.51-22.68.07-1.14.16-2.19.23-3.14.32-4.09.44-6.09-.39-6.83-.47-.42-1.69-.42-5.49-.38h-.83c-2.15.03-4.3.02-6.45,0-2.47-.02-5.03-.04-7.53,0-2.5.04-6.36.03-14.05,0l-4.13-.02c-3.73-.02-6.19-.04-9.82.02-11.14.17-12.65.72-13.38,1.37-.6.54-.76.96-2.1,5.73-.32,1.13-.7,2.48-1.16,4.09-1.78,6.18-2.76,9.58-4.05,13.16-2.69,7.43-4.18,11.53-7.59,14.92-.76.75-7.14,6.85-14.99,6.85Z"/>
  <path class="cls-1" d="M679.56,509.42c-4.34,0-6.7-.29-7.87-.44-9.6-1.2-15.41-3.52-17.78-7.1-3.05-4.62-2.4-10.2-1.32-14.05l4.81,1.35c-.8,2.85-1.33,6.9.68,9.95,1.43,2.16,6.61,3.95,14.22,4.9,2.25.28,9.09,1.14,27.4-1,13.68-1.6,15.92-2.81,17.6-4.35,3.77-3.48,4.91-8.64,5.2-12.36l4.98.39c-.51,6.61-2.87,12.02-6.8,15.64-2.99,2.76-6.52,4.02-20.4,5.65-9.62,1.12-16.24,1.44-20.73,1.44Z"/>
  <path class="cls-1" d="M575.14,499.22c-1.9,0-3.43-.12-4.42-.23-10.35-1.14-18.32-5.16-23.68-11.93-7.35-9.28-6.76-19.75-6.54-23.69.58-10.34,4.41-17.33,7.51-21.38,2.1-2.74,4.24-4.67,6.13-6.36,2.91-2.62,4.32-3.98,4.35-6.16.04-2.11-1.21-3.75-2.3-5.2l-.19-.26c-5.17-6.87-9.34-15.89-12.41-26.83l4.81-1.35c2.9,10.33,6.8,18.8,11.59,25.17l.18.25c1.1,1.45,2.84,3.75,3.24,6.84,6.28-1.75,18.23-3.53,29.84,3.26,3.98,2.33,11.24,7.66,15.06,17.23,3.86,9.67,2.01,18.3,1.12,22.45-.94,4.4-2.52,11.77-8.63,18.2-8.11,8.53-19.09,9.99-25.67,9.99ZM562.51,433.61c-1.12,2.21-3.03,3.93-5.01,5.72-1.73,1.55-3.69,3.32-5.51,5.69-2.68,3.49-5.98,9.55-6.49,18.62-.19,3.42-.71,12.52,5.46,20.31,6.8,8.57,16.97,9.7,20.31,10.07,3.84.42,17.06,1.08,25.91-8.24,5.14-5.41,6.48-11.66,7.37-15.8.85-3.95,2.42-11.29-.88-19.55-3.27-8.18-9.51-12.76-12.94-14.77-11.83-6.91-24.54-3.34-28.23-2.05Z"/>
  <path class="cls-1" d="M813.31,485.42c-2.04,0-4.25-.14-6.63-.44-3.77-.48-11.6-1.49-18.36-7.63-6.27-5.69-9.76-14.16-9.82-23.83-.07-10.97,5.33-19.74,6.41-21.39,1.53-2.33,3.11-4.16,4.51-5.78,2.6-3.01,3.83-4.55,3.54-6.57-.08-.57-.2-.8-.98-2.13-.52-.89-1.24-2.12-2.21-4.01-1.55-3.02-2.94-6.14-4.12-9.26l4.68-1.76c1.11,2.95,2.42,5.89,3.88,8.74.91,1.78,1.59,2.93,2.08,3.78.71,1.21,1.19,2.03,1.46,3.16,5.62-1.12,16.24-1.96,26.5,4.05,3.5,2.05,9.98,6.75,13.99,15.07,4.89,10.16,3.21,19.77,2.21,25.52-.98,5.59-1.62,9.29-4.46,13.07-2.29,3.05-8.76,9.42-22.69,9.42ZM797.42,423.49c-.85,2.23-2.5,4.14-4.22,6.13-1.3,1.5-2.77,3.2-4.12,5.26-.94,1.44-5.65,9.08-5.59,18.61.05,8.26,2.96,15.42,8.18,20.17,5.6,5.08,12.13,5.92,15.64,6.37,4.16.53,18.2,1.6,24.69-7.02,2.12-2.82,2.59-5.53,3.54-10.93.96-5.48,2.41-13.77-1.79-22.49-3.43-7.13-9-11.16-12.01-12.93-9.75-5.72-19.95-4.23-24.31-3.17Z"/>
</svg>